<svg xmlns="http://www.w3.org/2000/svg" xmlns:xlink="http://www.w3.org/1999/xlink" viewBox="0 0 268.1 270.13"><defs><style>.cls-1{fill:url(#radial-gradient);}.cls-2{fill:none;}.cls-3{isolation:isolate;}.cls-4{clip-path:url(#clip-path);}.cls-5{fill:url(#linear-gradient);}.cls-15,.cls-17,.cls-20,.cls-23,.cls-27,.cls-29,.cls-31,.cls-39,.cls-6,.cls-8{mix-blend-mode:hard-light;}.cls-6{fill:url(#radial-gradient-2);}.cls-10,.cls-7{mix-blend-mode:multiply;}.cls-7{fill:url(#radial-gradient-3);}.cls-8{fill:url(#radial-gradient-4);}.cls-9{fill:#1d1d1b;opacity:0.3;}.cls-11,.cls-14,.cls-38,.cls-9{mix-blend-mode:overlay;}.cls-10{fill:url(#radial-gradient-5);}.cls-11{fill:url(#radial-gradient-6);}.cls-12{fill:url(#linear-gradient-2);}.cls-13{fill:url(#linear-gradient-3);}.cls-14{fill:url(#radial-gradient-7);}.cls-15{fill:url(#radial-gradient-8);}.cls-16,.cls-21,.cls-24,.cls-25,.cls-33,.cls-35,.cls-40,.cls-41,.cls-43{mix-blend-mode:screen;}.cls-16{fill:url(#radial-gradient-9);}.cls-17{fill:url(#radial-gradient-10);}.cls-18{fill:url(#linear-gradient-4);}.cls-19{fill:url(#linear-gradient-5);}.cls-20{fill:url(#radial-gradient-11);}.cls-21{fill:url(#radial-gradient-12);}.cls-22{fill:url(#linear-gradient-6);}.cls-23{fill:url(#radial-gradient-13);}.cls-24{fill:url(#radial-gradient-14);}.cls-25{fill:url(#radial-gradient-15);}.cls-26{fill:url(#linear-gradient-7);}.cls-27{fill:url(#radial-gradient-16);}.cls-28{fill:url(#linear-gradient-8);}.cls-29{fill:url(#radial-gradient-17);}.cls-30{fill:url(#linear-gradient-9);}.cls-31{fill:url(#radial-gradient-18);}.cls-32{fill:url(#linear-gradient-10);}.cls-33{fill:url(#radial-gradient-19);}.cls-34{fill:url(#linear-gradient-11);}.cls-35{fill:url(#radial-gradient-20);}.cls-36{fill:url(#linear-gradient-12);}.cls-37{fill:url(#linear-gradient-13);}.cls-38{fill:url(#radial-gradient-21);}.cls-39{fill:url(#radial-gradient-22);}.cls-40{fill:url(#radial-gradient-23);}.cls-41,.cls-43{fill:#fff;}.cls-41{opacity:0.6;}.cls-42{mask:url(#mask);}.cls-44{filter:url(#luminosity-noclip);}</style><radialGradient id="radial-gradient" cx="-328.73" cy="385.06" r="13.84" gradientTransform="translate(-58.35 -642.09) rotate(-45) scale(1.6)" gradientUnits="userSpaceOnUse"><stop offset="0" stop-color="#b0b0b0"/><stop offset="0.83"/></radialGradient><clipPath id="clip-path" transform="translate(131.23 44.81)"><polygon class="cls-2" points="84.81 27.97 46.23 68.49 0 51.41 0.89 7.72 29.83 0 84.81 27.97"/></clipPath><linearGradient id="linear-gradient" x1="-1639.21" y1="-19.9" x2="-1700.93" y2="284.95" gradientTransform="matrix(-1, 0, 0, 1, -1521.98, 44.81)" gradientUnits="userSpaceOnUse"><stop offset="0" stop-color="#0059ff"/><stop offset="0.53" stop-color="#1d03a4"/><stop offset="1" stop-color="#102652"/></linearGradient><radialGradient id="radial-gradient-2" cx="-1603.98" cy="381.54" r="36.37" gradientTransform="matrix(-1.6, 0, 0, 1.6, -2402.69, -352.74)" gradientUnits="userSpaceOnUse"><stop offset="0" stop-color="#759dff"/><stop offset="1" stop-color="gray"/></radialGradient><radialGradient id="radial-gradient-3" cx="-1588.48" cy="439.32" r="183.8" gradientTransform="matrix(-1.6, 0, 0, 1.6, -2402.69, -352.74)" gradientUnits="userSpaceOnUse"><stop offset="0.7" stop-color="#fff"/><stop offset="0.84" stop-color="#c7076b"/><stop offset="0.87" stop-color="#d13586"/><stop offset="0.94" stop-color="#eba7ca"/><stop offset="1" stop-color="#fff"/></radialGradient><radialGradient id="radial-gradient-4" cx="-1593.73" cy="403.5" r="68.65" gradientTransform="matrix(-1.6, 0, 0, 1.6, -2402.69, -352.74)" gradientUnits="userSpaceOnUse"><stop offset="0" stop-color="#7373ff"/><stop offset="1" stop-color="gray"/></radialGradient><radialGradient id="radial-gradient-5" cx="-1665.28" cy="371.68" r="144.99" gradientTransform="matrix(-1.6, 0, 0, 1.6, -2402.69, -352.74)" gradientUnits="userSpaceOnUse"><stop offset="0" stop-color="#4e0052"/><stop offset="0.1" stop-color="#5a125e"/><stop offset="0.31" stop-color="#7a407d"/><stop offset="0.59" stop-color="#ae8bb0"/><stop offset="0.95" stop-color="#f5f0f5"/><stop offset="1" stop-color="#fff"/></radialGradient><radialGradient id="radial-gradient-6" cx="-1598.4" cy="375.49" r="89.77" gradientTransform="matrix(-1.6, 0, 0, 1.6, -2402.69, -352.74)" gradientUnits="userSpaceOnUse"><stop offset="0" stop-color="#000414"/><stop offset="1" stop-color="gray"/></radialGradient><linearGradient id="linear-gradient-2" x1="-1790.09" y1="79.64" x2="-1521.98" y2="79.64" gradientTransform="matrix(-1, 0, 0, 1, -1521.98, 44.81)" gradientUnits="userSpaceOnUse"><stop offset="0" stop-color="#0059ff"/><stop offset="0.53" stop-color="#1d03a4"/><stop offset="1" stop-color="#300029"/></linearGradient><linearGradient id="linear-gradient-3" x1="-1691.29" y1="205.52" x2="-1603.75" y2="-122.23" xlink:href="#linear-gradient-2"/><radialGradient id="radial-gradient-7" cx="-1589.18" cy="343.31" r="84.78" gradientTransform="matrix(-1.6, 0, 0, 1.6, -2402.69, -352.44)" gradientUnits="userSpaceOnUse"><stop offset="0" stop-color="#fff"/><stop offset="0.14" stop-color="#f8f8f8"/><stop offset="0.34" stop-color="#e5e5e5"/><stop offset="0.58" stop-color="#c6c6c6"/><stop offset="0.85" stop-color="#9c9c9c"/><stop offset="1" stop-color="gray"/></radialGradient><radialGradient id="radial-gradient-8" cx="-1599.04" cy="358.81" r="70.86" gradientTransform="matrix(-1.6, 0, 0, 1.6, -2402.69, -352.44)" gradientUnits="userSpaceOnUse"><stop offset="0" stop-color="#a1a1ff"/><stop offset="0.14" stop-color="#9f9ff6"/><stop offset="0.37" stop-color="#9898dd"/><stop offset="0.67" stop-color="#8e8eb5"/><stop offset="1" stop-color="gray"/></radialGradient><radialGradient id="radial-gradient-9" cx="-1588.22" cy="381.41" r="139.14" gradientTransform="matrix(-1.6, 0, 0, 1.6, -2533.92, -397.26)" gradientUnits="userSpaceOnUse"><stop offset="0" stop-color="#fff"/><stop offset="0.01" stop-color="#fdfdfd"/><stop offset="0.18" stop-color="#b2b2b2"/><stop offset="0.35" stop-color="#727272"/><stop offset="0.5" stop-color="#414141"/><stop offset="0.63" stop-color="#1e1e1e"/><stop offset="0.74" stop-color="#080808"/><stop offset="0.81"/></radialGradient><radialGradient id="radial-gradient-10" cx="-1563.4" cy="220.96" r="124.22" gradientTransform="matrix(-1.6, 0, 0, 1.6, -2533.92, -397.26)" xlink:href="#radial-gradient-2"/><linearGradient id="linear-gradient-4" x1="-1730.92" y1="82.48" x2="-1602.41" y2="-115.91" xlink:href="#linear-gradient-2"/><linearGradient id="linear-gradient-5" x1="-1717.7" y1="5.74" x2="-1859.73" y2="-219.7" xlink:href="#linear-gradient-2"/><radialGradient id="radial-gradient-11" cx="-1623" cy="271.45" r="144.82" gradientTransform="matrix(-1.6, 0, 0, 1.6, -2402.69, -352.44)" gradientUnits="userSpaceOnUse"><stop offset="0" stop-color="#e5bdff"/><stop offset="1" stop-color="gray"/></radialGradient><radialGradient id="radial-gradient-12" cx="-1615.96" cy="279.43" r="70.46" gradientTransform="matrix(-1.6, 0, 0, 1.6, -2402.69, -352.44)" xlink:href="#radial-gradient-9"/><linearGradient id="linear-gradient-6" x1="-1734.11" y1="111.25" x2="-1838.1" y2="-168.86" xlink:href="#linear-gradient-2"/><radialGradient id="radial-gradient-13" cx="-1590.59" cy="201" r="163.99" gradientTransform="matrix(-1.6, 0, 0, 1.6, -2402.69, -352.44)" gradientUnits="userSpaceOnUse"><stop offset="0" stop-color="#dba1ff"/><stop offset="1" stop-color="gray"/></radialGradient><radialGradient id="radial-gradient-14" cx="-1661.23" cy="238.55" r="0.34" gradientTransform="matrix(-1.6, 0, 0, 1.6, -2402.69, -352.44)" xlink:href="#radial-gradient-9"/><radialGradient id="radial-gradient-15" cx="-1619.24" cy="301.98" r="53.78" gradientTransform="matrix(-1.6, 0, 0, 1.6, -2402.69, -352.44)" xlink:href="#radial-gradient-9"/><linearGradient id="linear-gradient-7" x1="-1698.52" y1="189.55" x2="-1820.01" y2="-66.09" xlink:href="#linear-gradient-2"/><radialGradient id="radial-gradient-16" cx="-1615.25" cy="364.45" r="67.94" gradientTransform="matrix(-1.6, 0, 0, 1.6, -2402.69, -352.44)" gradientUnits="userSpaceOnUse"><stop offset="0" stop-color="#aaa1ff"/><stop offset="1" stop-color="gray"/></radialGradient><linearGradient id="linear-gradient-8" x1="-1678.55" y1="187.35" x2="-1749.85" y2="46.83" gradientTransform="matrix(-1, 0, 0, 1, -1521.98, 44.81)" gradientUnits="userSpaceOnUse"><stop offset="0" stop-color="#0059ff"/><stop offset="0.36" stop-color="#1d03a4"/><stop offset="1" stop-color="#300029"/></linearGradient><radialGradient id="radial-gradient-17" cx="-1577.2" cy="374.31" r="47.53" gradientTransform="matrix(-1.6, 0, 0, 1.6, -2402.69, -352.44)" gradientUnits="userSpaceOnUse"><stop offset="0" stop-color="#948aff"/><stop offset="1" stop-color="gray"/></radialGradient><linearGradient id="linear-gradient-9" x1="-1629.54" y1="7.91" x2="-1723.97" y2="-141.98" xlink:href="#linear-gradient-2"/><radialGradient id="radial-gradient-18" cx="-1600.16" cy="273.49" r="59.44" gradientTransform="matrix(-1.6, 0, 0, 1.6, -2402.69, -352.44)" gradientUnits="userSpaceOnUse"><stop offset="0" stop-color="#f7f9ff"/><stop offset="1" stop-color="gray"/></radialGradient><linearGradient id="linear-gradient-10" x1="-1561.92" y1="37.98" x2="-1697.68" y2="-177.51" xlink:href="#linear-gradient-2"/><radialGradient id="radial-gradient-19" cx="-109.03" cy="279.43" r="70.46" gradientTransform="translate(259.72 -352.44) scale(1.6)" xlink:href="#radial-gradient-9"/><linearGradient id="linear-gradient-11" x1="-1560.82" y1="116" x2="-1541.6" y2="-120.13" xlink:href="#linear-gradient-2"/><radialGradient id="radial-gradient-20" cx="-112.32" cy="301.98" r="53.78" gradientTransform="translate(259.72 -352.44) scale(1.6)" xlink:href="#radial-gradient-9"/><linearGradient id="linear-gradient-12" x1="-1592.94" y1="177.65" x2="-1535.45" y2="-37.1" xlink:href="#linear-gradient-2"/><linearGradient id="linear-gradient-13" x1="-1666.3" y1="249.15" x2="-1579.08" y2="82.83" xlink:href="#linear-gradient-2"/><radialGradient id="radial-gradient-21" cx="-1589.88" cy="437.73" r="100.88" xlink:href="#radial-gradient-7"/><radialGradient id="radial-gradient-22" cx="-1601.44" cy="219.9" r="132.14" gradientTransform="matrix(-1.6, 0, 0, 1.6, -2402.69, -352.44)" gradientUnits="userSpaceOnUse"><stop offset="0" stop-color="#a1b2ff"/><stop offset="1" stop-color="gray"/></radialGradient><radialGradient id="radial-gradient-23" cx="-1584.95" cy="345.19" r="25.84" gradientTransform="matrix(-1.6, 0, 0, 1.6, -2402.69, -352.44)" xlink:href="#radial-gradient-9"/><filter id="luminosity-noclip" x="-16.75" y="143.35" width="44.27" height="44.27" filterUnits="userSpaceOnUse" color-interpolation-filters="sRGB"><feFlood flood-color="#fff" result="bg"/><feBlend in="SourceGraphic" in2="bg"/></filter><mask id="mask" x="114.48" y="188.16" width="44.27" height="44.27" maskUnits="userSpaceOnUse"><g class="cls-44"><g transform="translate(131.23 44.81)"><path class="cls-1" d="M-10.27,181.14a22.14,22.14,0,1,1,31.31,0A22.14,22.14,0,0,1-10.27,181.14Z"/></g></g></mask></defs><g class="cls-3"><g id="圖層_2" data-name="圖層 2"><g id="圖層_1-2" data-name="圖層 1"><g class="cls-4"><g id="gem"><polygon class="cls-5" points="0.01 108.05 7.52 139.12 54.5 222.52 134.06 270.13 213.61 222.52 260.6 139.12 268.1 108.05 255.79 59.78 255.78 59.78 201.36 38.82 181.24 31.05 150.37 56.12 134.06 69.36 117.74 56.12 86.87 31.05 66.75 38.82 12.32 59.78 12.32 59.78 0.01 108.05"/><polygon class="cls-6" points="0.01 108.05 7.52 139.12 54.5 222.52 134.06 270.13 213.61 222.52 260.6 139.12 268.1 108.05 255.79 59.78 255.78 59.78 201.36 38.82 181.24 31.05 150.37 56.12 134.06 69.36 117.74 56.12 86.87 31.05 66.75 38.82 12.32 59.78 12.32 59.78 0.01 108.05"/><polygon class="cls-7" points="0.01 108.05 7.52 139.12 54.5 222.52 134.06 270.13 213.61 222.52 260.6 139.12 268.1 108.05 255.79 59.78 255.78 59.78 201.36 38.82 181.24 31.05 150.37 56.12 134.06 69.36 117.74 56.12 86.87 31.05 66.75 38.82 12.32 59.78 12.32 59.78 0.01 108.05"/><polygon class="cls-8" points="0.01 108.05 7.52 139.12 54.5 222.52 134.06 270.13 213.61 222.52 260.6 139.12 268.1 108.05 255.79 59.78 255.78 59.78 201.36 38.82 181.24 31.05 150.37 56.12 134.06 69.36 117.74 56.12 86.87 31.05 66.75 38.82 12.32 59.78 12.32 59.78 0.01 108.05"/><polygon class="cls-9" points="2.17 99.55 12.32 59.78 12.32 59.78 66.75 38.82 86.87 31.05 117.74 56.12 134.06 69.36 150.37 56.12 181.24 31.05 201.36 38.82 255.78 59.78 255.79 59.78 265.94 99.56 260.6 121.66 203.13 214.89 134.06 252.66 64.06 213.31 7.52 121.66 2.17 99.55"/><polygon class="cls-10" points="134.05 248.91 134.06 270.13 54.5 222.52 54.26 222.12 67.02 210.65 134.05 248.91"/><polygon class="cls-11" points="268.1 108.05 260.6 139.12 213.61 222.52 212.28 223.32 201.08 210.65 257.13 65.01 268.1 108.05"/><polygon class="cls-12" points="0 108.06 67.02 210.65 134.05 248.91 201.08 210.65 268.1 108.06 255.78 28.72 181.24 0 134.05 38.3 86.86 0 12.32 28.72 0 108.06"/><polygon class="cls-13" points="60.29 128.21 60.29 128.21 103.32 192.76 134.05 210.3 164.78 192.76 207.81 128.21 207.81 128.21 201.05 83.12 201.03 83.12 155.69 65.67 134.05 96.23 112.41 65.67 67.07 83.12 67.06 83.12 60.29 128.21"/><polygon class="cls-14" points="60.29 128.21 60.29 128.21 103.32 192.76 134.05 210.3 164.78 192.76 207.81 128.21 207.81 128.21 201.05 83.12 201.03 83.12 155.69 65.67 134.05 96.23 112.41 65.67 67.07 83.12 67.06 83.12 60.29 128.21"/><polygon class="cls-15" points="60.29 128.21 60.29 128.21 103.32 192.76 134.05 210.3 164.78 192.76 207.81 128.21 207.81 128.21 201.05 83.12 201.03 83.12 155.69 65.67 134.05 96.23 112.41 65.67 67.07 83.12 67.06 83.12 60.29 128.21"/><path class="cls-16" d="M-70.94,83.39h0l43,64.54L2.82,165.49l30.73-17.55,43-64.54h0L69.82,38.31h0L24.46,20.86,2.82,51.41-18.82,20.86-64.16,38.31h0Zm7.08-1.58,5.8-38.59L-21.3,29.07-2.7,55.32l5.52,7.8,5.53-7.8L26.94,29.07,63.71,43.22l5.8,38.59-40.7,61.05-26,14.84-26-14.84Z" transform="translate(131.23 44.81)"/><path class="cls-17" d="M-70.94,83.39h0l43,64.54L2.82,165.49l30.73-17.55,43-64.54h0L69.82,38.31h0L24.46,20.86,2.82,51.41-18.82,20.86-64.16,38.31h0Zm7.08-1.58,5.8-38.59L-21.3,29.07-2.7,55.32l5.52,7.8,5.53-7.8L26.94,29.07,63.71,43.22l5.8,38.59-40.7,61.05-26,14.84-26-14.84Z" transform="translate(131.23 44.81)"/><polygon class="cls-18" points="155.69 65.67 155.69 65.67 134.05 96.23 134.05 96.23 134.05 38.3 134.05 38.3 181.24 0.01 155.69 65.67"/><polygon class="cls-19" points="155.69 65.67 201.03 83.12 201.05 83.12 255.78 28.72 181.24 0 155.69 65.67"/><polygon class="cls-20" points="155.69 65.67 201.03 83.12 201.05 83.12 255.78 28.72 181.24 0 155.69 65.67"/><polygon class="cls-21" points="181.24 0 164.78 60.08 199.03 75.35 255.78 28.72 201.05 83.12 201.03 83.12 155.69 65.67 181.24 0"/><polygon class="cls-22" points="201.05 83.12 207.81 128.21 268.1 108.07 268.1 108.06 255.79 28.72 255.78 28.72 201.05 83.12"/><polygon class="cls-23" points="201.05 83.12 207.81 128.21 268.1 108.07 268.1 108.06 255.79 28.72 255.78 28.72 201.05 83.12"/><polygon class="cls-24" points="254.73 29.77 255.78 28.72 255.79 28.72 255.84 28.97 254.73 29.77"/><polygon class="cls-25" points="250.71 33.76 206.81 87.14 211.32 117.17 267.77 105.95 268.1 108.06 268.1 108.07 207.81 128.21 201.05 83.12 250.71 33.76"/><polygon class="cls-26" points="164.78 192.75 207.81 128.21 207.81 128.21 268.09 108.06 201.08 210.64 201.08 210.65 164.78 192.76 164.78 192.75"/><polygon class="cls-27" points="164.78 192.75 207.81 128.21 207.81 128.21 268.09 108.06 201.08 210.64 201.08 210.65 164.78 192.76 164.78 192.75"/><polygon class="cls-9" points="207.81 128.21 207.81 128.21 268.09 108.06 264.75 113.19 204.44 133.28 207.81 128.21"/><polygon class="cls-28" points="164.78 192.75 164.78 192.76 201.08 210.65 134.05 248.91 134.05 210.3 164.78 192.76 164.78 192.75"/><polygon class="cls-29" points="164.78 192.75 164.78 192.76 201.08 210.65 134.05 248.91 134.05 210.3 164.78 192.76 164.78 192.75"/><polygon class="cls-30" points="112.41 65.67 112.41 65.67 134.05 96.23 134.05 96.23 134.05 38.3 134.05 38.3 86.86 0.01 112.41 65.67"/><polygon class="cls-31" points="112.41 65.67 112.41 65.67 134.05 96.23 134.05 96.23 134.05 38.3 134.05 38.3 86.86 0.01 112.41 65.67"/><polygon class="cls-32" points="112.41 65.67 67.07 83.12 67.06 83.12 12.32 28.72 86.86 0 112.41 65.67"/><polygon class="cls-33" points="86.86 0 103.32 60.08 69.07 75.35 12.32 28.72 67.06 83.12 67.07 83.12 112.41 65.67 86.86 0"/><polygon class="cls-34" points="67.06 83.12 60.29 128.21 0 108.07 0 108.06 12.31 28.72 12.32 28.72 67.06 83.12"/><polygon class="cls-35" points="17.39 33.76 61.29 87.14 56.79 117.17 0.33 105.95 0 108.06 0 108.07 60.29 128.21 67.06 83.12 17.39 33.76"/><polygon class="cls-36" points="103.32 192.75 60.29 128.21 60.29 128.21 0.01 108.06 67.02 210.64 67.02 210.65 103.32 192.76 103.32 192.75"/><polygon class="cls-9" points="60.29 128.21 60.29 128.21 0.01 108.06 3.35 113.19 63.67 133.28 60.29 128.21"/><polygon class="cls-37" points="103.32 192.75 103.32 192.76 67.02 210.65 134.05 248.91 134.05 210.3 103.32 192.76 103.32 192.75"/><polygon class="cls-38" points="103.32 192.75 103.32 192.76 67.02 210.65 134.05 248.91 134.05 210.3 103.32 192.76 103.32 192.75"/><polygon class="cls-39" points="12.31 28.72 12.32 28.72 86.86 0.01 86.87 0.01 134.06 38.3 181.24 0.01 255.78 28.72 255.79 28.72 268.1 108.06 268.1 108.08 268.09 108.08 201.08 210.64 134.06 248.91 198.14 212.32 262.22 114.25 262.23 114.25 262.23 114.23 250.46 38.37 250.44 38.37 179.18 10.91 134.06 47.53 88.94 10.91 88.92 10.91 17.65 38.37 17.64 38.37 5.88 114.23 5.88 114.25 69.97 212.32 134.06 248.91 67.02 210.64 0.01 108.08 0.01 108.06 12.31 28.72"/><polygon class="cls-40" points="134.06 205.68 164.78 192.76 136.61 210.3 134.05 240.39 132.11 210.3 103.32 192.76 134.06 205.68"/><g id="glare"><path class="cls-41" d="M22.63,165.49A17.28,17.28,0,0,1,5.38,148.22a17.27,17.27,0,0,1-17.24,17.27A17.25,17.25,0,0,1,5.38,182.74,17.26,17.26,0,0,1,22.63,165.49Z" transform="translate(131.23 44.81)"/><g class="cls-42"><path class="cls-43" d="M-8.21,179.09a19.24,19.24,0,1,1,27.2,0A19.24,19.24,0,0,1-8.21,179.09Z" transform="translate(131.23 44.81)"/></g></g></g></g></g></g></g></svg>