<svg xmlns="http://www.w3.org/2000/svg" xmlns:xlink="http://www.w3.org/1999/xlink" viewBox="0 0 292.85 295.07"><defs><style>.cls-1{fill:url(#radial-gradient);}.cls-2{fill:none;}.cls-3{isolation:isolate;}.cls-4{clip-path:url(#clip-path);}.cls-5{fill:url(#linear-gradient);}.cls-15,.cls-17,.cls-20,.cls-23,.cls-27,.cls-29,.cls-31,.cls-39,.cls-6,.cls-8{mix-blend-mode:hard-light;}.cls-6{fill:url(#radial-gradient-2);}.cls-10,.cls-7{mix-blend-mode:multiply;}.cls-7{fill:url(#radial-gradient-3);}.cls-8{fill:url(#radial-gradient-4);}.cls-9{fill:#1d1d1b;opacity:0.3;}.cls-11,.cls-14,.cls-38,.cls-9{mix-blend-mode:overlay;}.cls-10{fill:url(#radial-gradient-5);}.cls-11{fill:url(#radial-gradient-6);}.cls-12{fill:url(#linear-gradient-2);}.cls-13{fill:url(#linear-gradient-3);}.cls-14{fill:url(#radial-gradient-7);}.cls-15{fill:url(#radial-gradient-8);}.cls-16,.cls-21,.cls-24,.cls-25,.cls-33,.cls-35,.cls-40,.cls-41,.cls-43{mix-blend-mode:screen;}.cls-16{fill:url(#radial-gradient-9);}.cls-17{fill:url(#radial-gradient-10);}.cls-18{fill:url(#linear-gradient-4);}.cls-19{fill:url(#linear-gradient-5);}.cls-20{fill:url(#radial-gradient-11);}.cls-21{fill:url(#radial-gradient-12);}.cls-22{fill:url(#linear-gradient-6);}.cls-23{fill:url(#radial-gradient-13);}.cls-24{fill:url(#radial-gradient-14);}.cls-25{fill:url(#radial-gradient-15);}.cls-26{fill:url(#linear-gradient-7);}.cls-27{fill:url(#radial-gradient-16);}.cls-28{fill:url(#linear-gradient-8);}.cls-29{fill:url(#radial-gradient-17);}.cls-30{fill:url(#linear-gradient-9);}.cls-31{fill:url(#radial-gradient-18);}.cls-32{fill:url(#linear-gradient-10);}.cls-33{fill:url(#radial-gradient-19);}.cls-34{fill:url(#linear-gradient-11);}.cls-35{fill:url(#radial-gradient-20);}.cls-36{fill:url(#linear-gradient-12);}.cls-37{fill:url(#linear-gradient-13);}.cls-38{fill:url(#radial-gradient-21);}.cls-39{fill:url(#radial-gradient-22);}.cls-40{fill:url(#radial-gradient-23);}.cls-41,.cls-43{fill:#fff;}.cls-41{opacity:0.6;}.cls-42{mask:url(#mask);}.cls-44{filter:url(#luminosity-noclip);}</style><radialGradient id="radial-gradient" cx="-435.03" cy="394.76" r="15.11" gradientTransform="translate(-52.86 -751.74) rotate(-45) scale(1.6)" gradientUnits="userSpaceOnUse"><stop offset="0" stop-color="#b0b0b0"/><stop offset="0.83"/></radialGradient><clipPath id="clip-path" transform="translate(247.65 42.63)"><polygon class="cls-2" points="60.06 0 63.22 89.56 1.05 106.42 0 44.25 60.06 0"/></clipPath><linearGradient id="linear-gradient" x1="-1725.96" y1="-15.42" x2="-1793.39" y2="317.57" gradientTransform="matrix(-1, 0, 0, 1, -1597.92, 42.63)" gradientUnits="userSpaceOnUse"><stop offset="0" stop-color="#00ff8b"/><stop offset="0.53" stop-color="#0365a4"/><stop offset="1" stop-color="#105235"/></linearGradient><radialGradient id="radial-gradient-2" cx="-1696.95" cy="400.15" r="39.73" gradientTransform="matrix(-1.6, 0, 0, 1.6, -2536.34, -358.72)" gradientUnits="userSpaceOnUse"><stop offset="0" stop-color="#75ffc8"/><stop offset="1" stop-color="gray"/></radialGradient><radialGradient id="radial-gradient-3" cx="-1680.02" cy="463.26" r="200.76" gradientTransform="matrix(-1.6, 0, 0, 1.6, -2536.34, -358.72)" gradientUnits="userSpaceOnUse"><stop offset="0.7" stop-color="#fff"/><stop offset="0.84" stop-color="#6c14c7"/><stop offset="0.87" stop-color="#8942d2"/><stop offset="0.95" stop-color="#d0b4ed"/><stop offset="1" stop-color="#fff"/></radialGradient><radialGradient id="radial-gradient-4" cx="-1685.75" cy="424.13" r="74.99" gradientTransform="matrix(-1.6, 0, 0, 1.6, -2536.34, -358.72)" gradientUnits="userSpaceOnUse"><stop offset="0" stop-color="#73f2ff"/><stop offset="1" stop-color="gray"/></radialGradient><radialGradient id="radial-gradient-5" cx="-1763.91" cy="389.38" r="158.37" gradientTransform="matrix(-1.6, 0, 0, 1.6, -2536.34, -358.72)" gradientUnits="userSpaceOnUse"><stop offset="0" stop-color="#0f0052"/><stop offset="0.1" stop-color="#20125e"/><stop offset="0.31" stop-color="#4b407d"/><stop offset="0.59" stop-color="#918bb0"/><stop offset="0.95" stop-color="#f1f0f5"/><stop offset="1" stop-color="#fff"/></radialGradient><radialGradient id="radial-gradient-6" cx="-1690.86" cy="393.53" r="98.05" gradientTransform="matrix(-1.6, 0, 0, 1.6, -2536.34, -358.72)" gradientUnits="userSpaceOnUse"><stop offset="0" stop-color="#00140f"/><stop offset="1" stop-color="gray"/></radialGradient><linearGradient id="linear-gradient-2" x1="-1890.77" y1="93.31" x2="-1597.92" y2="93.31" gradientTransform="matrix(-1, 0, 0, 1, -1597.92, 42.63)" gradientUnits="userSpaceOnUse"><stop offset="0" stop-color="#00ff8b"/><stop offset="0.53" stop-color="#0365a4"/><stop offset="1" stop-color="#0e0030"/></linearGradient><linearGradient id="linear-gradient-3" x1="-1782.86" y1="230.82" x2="-1687.24" y2="-127.19" xlink:href="#linear-gradient-2"/><radialGradient id="radial-gradient-7" cx="-1680.79" cy="358.41" r="92.6" gradientTransform="matrix(-1.6, 0, 0, 1.6, -2536.34, -358.42)" gradientUnits="userSpaceOnUse"><stop offset="0" stop-color="#fff"/><stop offset="0.14" stop-color="#f8f8f8"/><stop offset="0.34" stop-color="#e5e5e5"/><stop offset="0.58" stop-color="#c6c6c6"/><stop offset="0.85" stop-color="#9c9c9c"/><stop offset="1" stop-color="gray"/></radialGradient><radialGradient id="radial-gradient-8" cx="-1691.56" cy="375.34" r="77.4" gradientTransform="matrix(-1.6, 0, 0, 1.6, -2536.34, -358.42)" gradientUnits="userSpaceOnUse"><stop offset="0" stop-color="#a1f6ff"/><stop offset="0.14" stop-color="#9feef6"/><stop offset="0.37" stop-color="#98d7dd"/><stop offset="0.67" stop-color="#8eb2b5"/><stop offset="1" stop-color="gray"/></radialGradient><radialGradient id="radial-gradient-9" cx="-1679.73" cy="400.02" r="151.98" gradientTransform="matrix(-1.6, 0, 0, 1.6, -2783.99, -401.05)" gradientUnits="userSpaceOnUse"><stop offset="0" stop-color="#fff"/><stop offset="0.01" stop-color="#fdfdfd"/><stop offset="0.18" stop-color="#b2b2b2"/><stop offset="0.35" stop-color="#727272"/><stop offset="0.5" stop-color="#414141"/><stop offset="0.63" stop-color="#1e1e1e"/><stop offset="0.74" stop-color="#080808"/><stop offset="0.81"/></radialGradient><radialGradient id="radial-gradient-10" cx="-1652.62" cy="224.76" r="135.69" gradientTransform="matrix(-1.6, 0, 0, 1.6, -2783.99, -401.05)" xlink:href="#radial-gradient-2"/><linearGradient id="linear-gradient-4" x1="-1826.14" y1="96.42" x2="-1685.77" y2="-120.29" xlink:href="#linear-gradient-2"/><linearGradient id="linear-gradient-5" x1="-1811.7" y1="12.59" x2="-1966.84" y2="-233.66" xlink:href="#linear-gradient-2"/><radialGradient id="radial-gradient-11" cx="-1717.73" cy="279.91" r="158.19" gradientTransform="matrix(-1.6, 0, 0, 1.6, -2536.34, -358.42)" gradientUnits="userSpaceOnUse"><stop offset="0" stop-color="#bdbeff"/><stop offset="1" stop-color="gray"/></radialGradient><radialGradient id="radial-gradient-12" cx="-1710.03" cy="288.63" r="76.97" gradientTransform="matrix(-1.6, 0, 0, 1.6, -2536.34, -358.42)" xlink:href="#radial-gradient-9"/><linearGradient id="linear-gradient-6" x1="-1829.63" y1="127.84" x2="-1943.22" y2="-178.13" xlink:href="#linear-gradient-2"/><radialGradient id="radial-gradient-13" cx="-1682.32" cy="202.95" r="179.13" gradientTransform="matrix(-1.6, 0, 0, 1.6, -2536.34, -358.42)" gradientUnits="userSpaceOnUse"><stop offset="0" stop-color="#a1a2ff"/><stop offset="1" stop-color="gray"/></radialGradient><radialGradient id="radial-gradient-14" cx="-1759.49" cy="243.98" r="0.37" gradientTransform="matrix(-1.6, 0, 0, 1.6, -2536.34, -358.42)" xlink:href="#radial-gradient-9"/><radialGradient id="radial-gradient-15" cx="-1713.62" cy="313.25" r="58.74" gradientTransform="matrix(-1.6, 0, 0, 1.6, -2536.34, -358.42)" xlink:href="#radial-gradient-9"/><linearGradient id="linear-gradient-7" x1="-1790.76" y1="213.36" x2="-1923.46" y2="-65.86" xlink:href="#linear-gradient-2"/><radialGradient id="radial-gradient-16" cx="-1709.26" cy="381.5" r="74.21" gradientTransform="matrix(-1.6, 0, 0, 1.6, -2536.34, -358.42)" gradientUnits="userSpaceOnUse"><stop offset="0" stop-color="#a1e5ff"/><stop offset="1" stop-color="gray"/></radialGradient><linearGradient id="linear-gradient-8" x1="-1768.93" y1="210.96" x2="-1846.82" y2="57.47" gradientTransform="matrix(-1, 0, 0, 1, -1597.92, 42.63)" gradientUnits="userSpaceOnUse"><stop offset="0" stop-color="#00ff8b"/><stop offset="0.36" stop-color="#0365a4"/><stop offset="1" stop-color="#0e0030"/></linearGradient><radialGradient id="radial-gradient-17" cx="-1667.7" cy="392.27" r="51.92" gradientTransform="matrix(-1.6, 0, 0, 1.6, -2536.34, -358.42)" gradientUnits="userSpaceOnUse"><stop offset="0" stop-color="#8ae2ff"/><stop offset="1" stop-color="gray"/></radialGradient><linearGradient id="linear-gradient-9" x1="-1715.4" y1="14.96" x2="-1818.55" y2="-148.77" xlink:href="#linear-gradient-2"/><radialGradient id="radial-gradient-18" cx="-1692.77" cy="282.14" r="64.92" gradientTransform="matrix(-1.6, 0, 0, 1.6, -2536.34, -358.42)" gradientUnits="userSpaceOnUse"><stop offset="0" stop-color="#f7fffc"/><stop offset="1" stop-color="gray"/></radialGradient><linearGradient id="linear-gradient-10" x1="-1641.55" y1="47.81" x2="-1789.84" y2="-187.58" xlink:href="#linear-gradient-2"/><radialGradient id="radial-gradient-19" cx="-212.95" cy="288.63" r="76.97" gradientTransform="translate(433.85 -358.42) scale(1.6)" xlink:href="#radial-gradient-9"/><linearGradient id="linear-gradient-11" x1="-1640.34" y1="133.03" x2="-1619.35" y2="-124.9" xlink:href="#linear-gradient-2"/><radialGradient id="radial-gradient-20" cx="-216.54" cy="313.25" r="58.74" gradientTransform="translate(433.85 -358.42) scale(1.6)" xlink:href="#radial-gradient-9"/><linearGradient id="linear-gradient-12" x1="-1675.43" y1="200.37" x2="-1612.63" y2="-34.2" xlink:href="#linear-gradient-2"/><linearGradient id="linear-gradient-13" x1="-1755.56" y1="278.47" x2="-1660.29" y2="96.79" xlink:href="#linear-gradient-2"/><radialGradient id="radial-gradient-21" cx="-1681.55" cy="461.54" r="110.2" xlink:href="#radial-gradient-7"/><radialGradient id="radial-gradient-22" cx="-1694.18" cy="223.6" r="144.34" gradientTransform="matrix(-1.6, 0, 0, 1.6, -2536.34, -358.42)" gradientUnits="userSpaceOnUse"><stop offset="0" stop-color="#a1ffe9"/><stop offset="1" stop-color="gray"/></radialGradient><radialGradient id="radial-gradient-23" cx="-1676.17" cy="360.46" r="28.22" gradientTransform="matrix(-1.6, 0, 0, 1.6, -2536.34, -358.42)" xlink:href="#radial-gradient-9"/><filter id="luminosity-noclip" x="-122.61" y="162.9" width="48.36" height="48.36" filterUnits="userSpaceOnUse" color-interpolation-filters="sRGB"><feFlood flood-color="#fff" result="bg"/><feBlend in="SourceGraphic" in2="bg"/></filter><mask id="mask" x="125.05" y="205.53" width="48.36" height="48.36" maskUnits="userSpaceOnUse"><g class="cls-44"><g transform="translate(247.65 42.63)"><path class="cls-1" d="M-115.52,204.18a24.18,24.18,0,0,1,0-34.2,24.18,24.18,0,0,1,34.2,0,24.2,24.2,0,0,1,0,34.19A24.19,24.19,0,0,1-115.52,204.18Z"/></g></g></mask></defs><g class="cls-3"><g id="圖層_2" data-name="圖層 2"><g id="圖層_1-2" data-name="圖層 1"><g class="cls-4"><g id="gem"><polygon class="cls-5" points="0.01 118.03 8.21 151.97 59.53 243.06 146.43 295.07 233.33 243.06 284.66 151.97 292.85 118.03 279.41 65.3 279.4 65.29 219.95 42.4 197.97 33.92 164.25 61.3 146.43 75.76 128.61 61.3 94.88 33.92 72.92 42.4 13.46 65.29 13.46 65.3 0.01 118.03"/><polygon class="cls-6" points="0.01 118.03 8.21 151.97 59.53 243.06 146.43 295.07 233.33 243.06 284.66 151.97 292.85 118.03 279.41 65.3 279.4 65.29 219.95 42.4 197.97 33.92 164.25 61.3 146.43 75.76 128.61 61.3 94.88 33.92 72.92 42.4 13.46 65.29 13.46 65.3 0.01 118.03"/><polygon class="cls-7" points="0.01 118.03 8.21 151.97 59.53 243.06 146.43 295.07 233.33 243.06 284.66 151.97 292.85 118.03 279.41 65.3 279.4 65.29 219.95 42.4 197.97 33.92 164.25 61.3 146.43 75.76 128.61 61.3 94.88 33.92 72.92 42.4 13.46 65.29 13.46 65.3 0.01 118.03"/><polygon class="cls-8" points="0.01 118.03 8.21 151.97 59.53 243.06 146.43 295.07 233.33 243.06 284.66 151.97 292.85 118.03 279.41 65.3 279.4 65.29 219.95 42.4 197.97 33.92 164.25 61.3 146.43 75.76 128.61 61.3 94.88 33.92 72.92 42.4 13.46 65.29 13.46 65.3 0.01 118.03"/><polygon class="cls-9" points="2.37 108.74 13.46 65.3 13.46 65.29 72.92 42.4 94.88 33.92 128.61 61.3 146.43 75.76 164.25 61.3 197.97 33.92 219.95 42.4 279.4 65.29 279.41 65.3 290.49 108.75 284.66 132.88 221.89 234.73 146.43 275.98 69.97 233 8.21 132.88 2.37 108.74"/><polygon class="cls-10" points="146.42 271.88 146.43 295.07 59.53 243.06 59.27 242.62 73.21 230.1 146.42 271.88"/><polygon class="cls-11" points="292.85 118.03 284.66 151.97 233.33 243.06 231.88 243.94 219.64 230.1 280.86 71.01 292.85 118.03"/><polygon class="cls-12" points="0 118.03 73.21 230.1 146.42 271.88 219.64 230.1 292.85 118.03 279.4 31.37 197.97 0 146.42 41.84 94.88 0 13.46 31.37 0 118.03"/><polygon class="cls-13" points="65.86 140.04 65.86 140.05 112.86 210.55 146.42 229.71 179.99 210.55 227 140.05 227 140.04 219.6 90.79 219.59 90.79 170.06 71.73 146.42 105.11 122.79 71.73 73.26 90.79 73.25 90.79 65.86 140.04"/><polygon class="cls-14" points="65.86 140.04 65.86 140.05 112.86 210.55 146.42 229.71 179.99 210.55 227 140.05 227 140.04 219.6 90.79 219.59 90.79 170.06 71.73 146.42 105.11 122.79 71.73 73.26 90.79 73.25 90.79 65.86 140.04"/><polygon class="cls-15" points="65.86 140.04 65.86 140.05 112.86 210.55 146.42 229.71 179.99 210.55 227 140.05 227 140.04 219.6 90.79 219.59 90.79 170.06 71.73 146.42 105.11 122.79 71.73 73.26 90.79 73.25 90.79 65.86 140.04"/><path class="cls-16" d="M-181.79,97.41h0l47,70.5,33.56,19.16,33.57-19.16,47-70.5h0L-28,48.17h0L-77.59,29.11l-23.64,33.37-23.63-33.37-49.53,19.06h0Zm7.72-1.72,6.34-42.16,40.16-15.46,20.31,28.68,6,8.52,6-8.52,20.31-28.68,40.16,15.46,6.33,42.16-44.45,66.68-28.39,16.21-28.38-16.21Z" transform="translate(247.65 42.63)"/><path class="cls-17" d="M-181.79,97.41h0l47,70.5,33.56,19.16,33.57-19.16,47-70.5h0L-28,48.17h0L-77.59,29.11l-23.64,33.37-23.63-33.37-49.53,19.06h0Zm7.72-1.72,6.34-42.16,40.16-15.46,20.31,28.68,6,8.52,6-8.52,20.31-28.68,40.16,15.46,6.33,42.16-44.45,66.68-28.39,16.21-28.38-16.21Z" transform="translate(247.65 42.63)"/><polygon class="cls-18" points="170.06 71.73 170.06 71.73 146.42 105.11 146.42 105.11 146.42 41.84 146.42 41.84 197.97 0.01 170.06 71.73"/><polygon class="cls-19" points="170.06 71.73 219.59 90.79 219.6 90.79 279.4 31.37 197.97 0 170.06 71.73"/><polygon class="cls-20" points="170.06 71.73 219.59 90.79 219.6 90.79 279.4 31.37 197.97 0 170.06 71.73"/><polygon class="cls-21" points="197.97 0 179.99 65.62 217.4 82.31 279.4 31.37 219.6 90.79 219.59 90.79 170.06 71.73 197.97 0"/><polygon class="cls-22" points="219.6 90.79 227 140.04 292.85 118.04 292.85 118.03 279.41 31.37 279.4 31.37 219.6 90.79"/><polygon class="cls-23" points="219.6 90.79 227 140.04 292.85 118.04 292.85 118.03 279.41 31.37 279.4 31.37 219.6 90.79"/><polygon class="cls-24" points="278.24 32.52 279.4 31.37 279.41 31.37 279.45 31.65 278.24 32.52"/><polygon class="cls-25" points="273.85 36.87 225.91 95.19 230.82 127.98 292.49 115.74 292.85 118.03 292.85 118.04 227 140.04 219.6 90.79 273.85 36.87"/><polygon class="cls-26" points="179.99 210.54 227 140.05 227 140.05 292.84 118.03 219.64 230.09 219.64 230.1 179.99 210.55 179.99 210.54"/><polygon class="cls-27" points="179.99 210.54 227 140.05 227 140.05 292.84 118.03 219.64 230.09 219.64 230.1 179.99 210.55 179.99 210.54"/><polygon class="cls-9" points="227 140.05 227 140.05 292.84 118.03 289.19 123.64 223.31 145.59 227 140.05"/><polygon class="cls-28" points="179.99 210.54 179.99 210.55 219.64 230.1 146.42 271.88 146.42 229.71 179.99 210.55 179.99 210.54"/><polygon class="cls-29" points="179.99 210.54 179.99 210.55 219.64 230.1 146.42 271.88 146.42 229.71 179.99 210.55 179.99 210.54"/><polygon class="cls-30" points="122.79 71.73 122.79 71.73 146.42 105.11 146.42 105.11 146.42 41.84 146.42 41.84 94.88 0.01 122.79 71.73"/><polygon class="cls-31" points="122.79 71.73 122.79 71.73 146.42 105.11 146.42 105.11 146.42 41.84 146.42 41.84 94.88 0.01 122.79 71.73"/><polygon class="cls-32" points="122.79 71.73 73.26 90.79 73.25 90.79 13.46 31.37 94.88 0 122.79 71.73"/><polygon class="cls-33" points="94.88 0 112.86 65.62 75.45 82.31 13.46 31.37 73.25 90.79 73.26 90.79 122.79 71.73 94.88 0"/><polygon class="cls-34" points="73.25 90.79 65.86 140.04 0 118.04 0 118.03 13.45 31.37 13.46 31.37 73.25 90.79"/><polygon class="cls-35" points="19 36.87 66.95 95.19 62.03 127.98 0.36 115.74 0 118.03 0 118.04 65.86 140.04 73.25 90.79 19 36.87"/><polygon class="cls-36" points="112.86 210.54 65.86 140.05 65.86 140.05 0.01 118.03 73.21 230.09 73.21 230.1 112.86 210.55 112.86 210.54"/><polygon class="cls-9" points="65.86 140.05 65.86 140.05 0.01 118.03 3.66 123.64 69.54 145.59 65.86 140.05"/><polygon class="cls-37" points="112.86 210.54 112.86 210.55 73.21 230.1 146.42 271.88 146.42 229.71 112.86 210.55 112.86 210.54"/><polygon class="cls-38" points="112.86 210.54 112.86 210.55 73.21 230.1 146.42 271.88 146.42 229.71 112.86 210.55 112.86 210.54"/><polygon class="cls-39" points="13.45 31.37 13.46 31.37 94.88 0.01 94.88 0.01 146.43 41.84 197.97 0.01 279.4 31.37 279.41 31.37 292.85 118.03 292.85 118.06 292.84 118.06 219.64 230.09 146.43 271.88 216.43 231.92 286.43 124.79 286.44 124.79 286.44 124.78 273.58 41.91 273.56 41.91 195.72 11.92 146.43 51.92 97.15 11.92 97.13 11.92 19.28 41.91 19.27 41.91 6.42 124.78 6.42 124.79 76.43 231.92 146.43 271.88 73.21 230.09 0.01 118.06 0.01 118.03 13.45 31.37"/><polygon class="cls-40" points="146.43 224.67 179.99 210.55 149.22 229.71 146.42 262.57 144.3 229.71 112.86 210.55 146.43 224.67"/><g id="glare"><path class="cls-41" d="M-79.59,187.08a18.86,18.86,0,0,1-18.84-18.85,18.85,18.85,0,0,1-18.83,18.85,18.86,18.86,0,0,1,18.83,18.85A18.86,18.86,0,0,1-79.59,187.08Z" transform="translate(247.65 42.63)"/><g class="cls-42"><path class="cls-43" d="M-113.28,201.94a21,21,0,0,1,0-29.71,21,21,0,0,1,29.73,0,21,21,0,0,1,0,29.71A21,21,0,0,1-113.28,201.94Z" transform="translate(247.65 42.63)"/></g></g></g></g></g></g></g></svg>