<svg xmlns="http://www.w3.org/2000/svg" xmlns:xlink="http://www.w3.org/1999/xlink" viewBox="0 0 292.85 295.07"><defs><style>.cls-1{fill:url(#radial-gradient);}.cls-2{fill:none;}.cls-3{isolation:isolate;}.cls-4{clip-path:url(#clip-path);}.cls-5{fill:url(#linear-gradient);}.cls-15,.cls-17,.cls-20,.cls-23,.cls-27,.cls-29,.cls-31,.cls-39,.cls-6,.cls-8{mix-blend-mode:hard-light;}.cls-6{fill:url(#radial-gradient-2);}.cls-10,.cls-7{mix-blend-mode:multiply;}.cls-7{fill:url(#radial-gradient-3);}.cls-8{fill:url(#radial-gradient-4);}.cls-9{fill:#1d1d1b;opacity:0.3;}.cls-11,.cls-14,.cls-38,.cls-9{mix-blend-mode:overlay;}.cls-10{fill:url(#radial-gradient-5);}.cls-11{fill:url(#radial-gradient-6);}.cls-12{fill:url(#linear-gradient-2);}.cls-13{fill:url(#linear-gradient-3);}.cls-14{fill:url(#radial-gradient-7);}.cls-15{fill:url(#radial-gradient-8);}.cls-16,.cls-21,.cls-24,.cls-25,.cls-33,.cls-35,.cls-40,.cls-41,.cls-43{mix-blend-mode:screen;}.cls-16{fill:url(#radial-gradient-9);}.cls-17{fill:url(#radial-gradient-10);}.cls-18{fill:url(#linear-gradient-4);}.cls-19{fill:url(#linear-gradient-5);}.cls-20{fill:url(#radial-gradient-11);}.cls-21{fill:url(#radial-gradient-12);}.cls-22{fill:url(#linear-gradient-6);}.cls-23{fill:url(#radial-gradient-13);}.cls-24{fill:url(#radial-gradient-14);}.cls-25{fill:url(#radial-gradient-15);}.cls-26{fill:url(#linear-gradient-7);}.cls-27{fill:url(#radial-gradient-16);}.cls-28{fill:url(#linear-gradient-8);}.cls-29{fill:url(#radial-gradient-17);}.cls-30{fill:url(#linear-gradient-9);}.cls-31{fill:url(#radial-gradient-18);}.cls-32{fill:url(#linear-gradient-10);}.cls-33{fill:url(#radial-gradient-19);}.cls-34{fill:url(#linear-gradient-11);}.cls-35{fill:url(#radial-gradient-20);}.cls-36{fill:url(#linear-gradient-12);}.cls-37{fill:url(#linear-gradient-13);}.cls-38{fill:url(#radial-gradient-21);}.cls-39{fill:url(#radial-gradient-22);}.cls-40{fill:url(#radial-gradient-23);}.cls-41,.cls-43{fill:#fff;}.cls-41{opacity:0.6;}.cls-42{mask:url(#mask);}.cls-44{filter:url(#luminosity-noclip);}</style><radialGradient id="radial-gradient" cx="-298.79" cy="215.77" r="15.11" gradientTransform="translate(133.39 -577.37) rotate(-45) scale(1.6)" gradientUnits="userSpaceOnUse"><stop offset="0" stop-color="#b0b0b0"/><stop offset="0.83"/></radialGradient><clipPath id="clip-path" transform="translate(109.77 224.91)"><polygon class="cls-2" points="0 110.76 36.88 85.48 36.65 37.67 96.79 0 109.87 5.18 153.69 50.57 37.79 99.04 0 110.76"/></clipPath><linearGradient id="linear-gradient" x1="-1597.45" y1="-197.7" x2="-1664.87" y2="135.29" gradientTransform="matrix(-1, 0, 0, 1, -1469.4, 224.91)" gradientUnits="userSpaceOnUse"><stop offset="0" stop-color="#7253ff"/><stop offset="0.53" stop-color="#8237a4"/><stop offset="1" stop-color="#2d2552"/></linearGradient><radialGradient id="radial-gradient-2" cx="-1566.67" cy="218.69" r="39.73" gradientTransform="matrix(-1.6, 0, 0, 1.6, -2327.9, -68.38)" gradientUnits="userSpaceOnUse"><stop offset="0" stop-color="#b29eff"/><stop offset="1" stop-color="#7c7d80"/></radialGradient><radialGradient id="radial-gradient-3" cx="-1549.74" cy="281.8" r="200.76" gradientTransform="matrix(-1.6, 0, 0, 1.6, -2327.9, -68.38)" gradientUnits="userSpaceOnUse"><stop offset="0.7" stop-color="#fff"/><stop offset="0.84" stop-color="#c75545"/><stop offset="0.88" stop-color="#d57f73"/><stop offset="0.98" stop-color="#f7e7e5"/><stop offset="1" stop-color="#fff"/></radialGradient><radialGradient id="radial-gradient-4" cx="-1555.48" cy="242.67" r="74.99" gradientTransform="matrix(-1.6, 0, 0, 1.6, -2327.9, -68.38)" gradientUnits="userSpaceOnUse"><stop offset="0" stop-color="#cb9dff"/><stop offset="1" stop-color="#7c7d80"/></radialGradient><radialGradient id="radial-gradient-5" cx="-1633.64" cy="207.92" r="158.37" gradientTransform="matrix(-1.6, 0, 0, 1.6, -2327.9, -68.38)" gradientUnits="userSpaceOnUse"><stop offset="0" stop-color="#521b28"/><stop offset="0.11" stop-color="#5f2d39"/><stop offset="0.34" stop-color="#825b64"/><stop offset="0.65" stop-color="#bba5ab"/><stop offset="1" stop-color="#fff"/></radialGradient><radialGradient id="radial-gradient-6" cx="-1560.58" cy="212.08" r="98.05" gradientTransform="matrix(-1.6, 0, 0, 1.6, -2327.9, -68.38)" gradientUnits="userSpaceOnUse"><stop offset="0" stop-color="#140b07"/><stop offset="1" stop-color="#7c7d80"/></radialGradient><linearGradient id="linear-gradient-2" x1="-1762.26" y1="-88.97" x2="-1469.4" y2="-88.97" gradientTransform="matrix(-1, 0, 0, 1, -1469.4, 224.91)" gradientUnits="userSpaceOnUse"><stop offset="0" stop-color="#7253ff"/><stop offset="0.53" stop-color="#8237a4"/><stop offset="1" stop-color="#300f10"/></linearGradient><linearGradient id="linear-gradient-3" x1="-1654.34" y1="48.54" x2="-1558.72" y2="-309.47" xlink:href="#linear-gradient-2"/><radialGradient id="radial-gradient-7" cx="-1550.51" cy="176.95" r="92.6" gradientTransform="matrix(-1.6, 0, 0, 1.6, -2327.9, -68.09)" gradientUnits="userSpaceOnUse"><stop offset="0" stop-color="#fff"/><stop offset="0.14" stop-color="#f8f8f8"/><stop offset="0.34" stop-color="#e5e6e6"/><stop offset="0.57" stop-color="#c6c7c8"/><stop offset="0.83" stop-color="#9c9d9f"/><stop offset="1" stop-color="#7c7d80"/></radialGradient><radialGradient id="radial-gradient-8" cx="-1561.29" cy="193.88" r="77.4" gradientTransform="matrix(-1.6, 0, 0, 1.6, -2327.9, -68.09)" gradientUnits="userSpaceOnUse"><stop offset="0" stop-color="#dbbaff"/><stop offset="0.14" stop-color="#d4b6f6"/><stop offset="0.37" stop-color="#c2aadd"/><stop offset="0.67" stop-color="#a497b5"/><stop offset="1" stop-color="#7c7d80"/></radialGradient><radialGradient id="radial-gradient-9" cx="-1549.46" cy="218.56" r="151.98" gradientTransform="matrix(-1.6, 0, 0, 1.6, -2437.67, -292.99)" gradientUnits="userSpaceOnUse"><stop offset="0" stop-color="#fff"/><stop offset="0.01" stop-color="#fdfdfd"/><stop offset="0.18" stop-color="#b2b2b2"/><stop offset="0.35" stop-color="#727272"/><stop offset="0.5" stop-color="#414141"/><stop offset="0.63" stop-color="#1e1e1e"/><stop offset="0.74" stop-color="#080808"/><stop offset="0.81"/></radialGradient><radialGradient id="radial-gradient-10" cx="-1522.35" cy="43.3" r="135.69" gradientTransform="matrix(-1.6, 0, 0, 1.6, -2437.67, -292.99)" xlink:href="#radial-gradient-2"/><linearGradient id="linear-gradient-4" x1="-1697.62" y1="-85.86" x2="-1557.26" y2="-302.57" xlink:href="#linear-gradient-2"/><linearGradient id="linear-gradient-5" x1="-1683.18" y1="-169.69" x2="-1838.32" y2="-415.94" xlink:href="#linear-gradient-2"/><radialGradient id="radial-gradient-11" cx="-1587.45" cy="98.45" r="158.19" gradientTransform="matrix(-1.6, 0, 0, 1.6, -2327.9, -68.09)" gradientUnits="userSpaceOnUse"><stop offset="0" stop-color="#ffcce8"/><stop offset="1" stop-color="#7c7d80"/></radialGradient><radialGradient id="radial-gradient-12" cx="-1579.76" cy="107.17" r="76.97" gradientTransform="matrix(-1.6, 0, 0, 1.6, -2327.9, -68.09)" xlink:href="#radial-gradient-9"/><linearGradient id="linear-gradient-6" x1="-1701.11" y1="-54.44" x2="-1814.7" y2="-360.41" xlink:href="#linear-gradient-2"/><radialGradient id="radial-gradient-13" cx="-1552.05" cy="21.49" r="179.13" gradientTransform="matrix(-1.6, 0, 0, 1.6, -2327.9, -68.09)" gradientUnits="userSpaceOnUse"><stop offset="0" stop-color="#ffbae2"/><stop offset="1" stop-color="#7c7d80"/></radialGradient><radialGradient id="radial-gradient-14" cx="-1629.22" cy="62.52" r="0.37" gradientTransform="matrix(-1.6, 0, 0, 1.6, -2327.9, -68.09)" xlink:href="#radial-gradient-9"/><radialGradient id="radial-gradient-15" cx="-1583.35" cy="131.79" r="58.74" gradientTransform="matrix(-1.6, 0, 0, 1.6, -2327.9, -68.09)" xlink:href="#radial-gradient-9"/><linearGradient id="linear-gradient-7" x1="-1662.24" y1="31.09" x2="-1794.94" y2="-248.14" xlink:href="#linear-gradient-2"/><radialGradient id="radial-gradient-16" cx="-1578.99" cy="200.04" r="74.21" gradientTransform="matrix(-1.6, 0, 0, 1.6, -2327.9, -68.09)" gradientUnits="userSpaceOnUse"><stop offset="0" stop-color="#e2baff"/><stop offset="1" stop-color="#7c7d80"/></radialGradient><linearGradient id="linear-gradient-8" x1="-1640.42" y1="28.68" x2="-1718.31" y2="-124.81" gradientTransform="matrix(-1, 0, 0, 1, -1469.4, 224.91)" gradientUnits="userSpaceOnUse"><stop offset="0" stop-color="#7253ff"/><stop offset="0.36" stop-color="#8237a4"/><stop offset="1" stop-color="#300f10"/></linearGradient><radialGradient id="radial-gradient-17" cx="-1537.42" cy="210.81" r="51.92" gradientTransform="matrix(-1.6, 0, 0, 1.6, -2327.9, -68.09)" gradientUnits="userSpaceOnUse"><stop offset="0" stop-color="#dbabff"/><stop offset="1" stop-color="#7c7d80"/></radialGradient><linearGradient id="linear-gradient-9" x1="-1586.89" y1="-167.32" x2="-1690.03" y2="-331.05" xlink:href="#linear-gradient-2"/><radialGradient id="radial-gradient-18" cx="-1562.5" cy="100.68" r="64.92" gradientTransform="matrix(-1.6, 0, 0, 1.6, -2327.9, -68.09)" gradientUnits="userSpaceOnUse"><stop offset="0" stop-color="#f3f1ff"/><stop offset="1" stop-color="#7c7d80"/></radialGradient><linearGradient id="linear-gradient-10" x1="-1513.03" y1="-134.47" x2="-1661.32" y2="-369.86" xlink:href="#linear-gradient-2"/><radialGradient id="radial-gradient-19" cx="-76.82" cy="107.17" r="76.97" gradientTransform="translate(216.05 -68.09) scale(1.6)" xlink:href="#radial-gradient-9"/><linearGradient id="linear-gradient-11" x1="-1511.83" y1="-49.25" x2="-1490.83" y2="-307.18" xlink:href="#linear-gradient-2"/><radialGradient id="radial-gradient-20" cx="-80.41" cy="131.79" r="58.74" gradientTransform="translate(216.05 -68.09) scale(1.6)" xlink:href="#radial-gradient-9"/><linearGradient id="linear-gradient-12" x1="-1546.91" y1="18.09" x2="-1484.11" y2="-216.48" xlink:href="#linear-gradient-2"/><linearGradient id="linear-gradient-13" x1="-1627.04" y1="96.19" x2="-1531.77" y2="-85.49" xlink:href="#linear-gradient-2"/><radialGradient id="radial-gradient-21" cx="-1551.28" cy="280.08" r="110.2" xlink:href="#radial-gradient-7"/><radialGradient id="radial-gradient-22" cx="-1563.9" cy="42.14" r="144.34" gradientTransform="matrix(-1.6, 0, 0, 1.6, -2327.9, -68.09)" gradientUnits="userSpaceOnUse"><stop offset="0" stop-color="#cebaff"/><stop offset="1" stop-color="#7c7d80"/></radialGradient><radialGradient id="radial-gradient-23" cx="-1545.9" cy="179" r="28.22" gradientTransform="matrix(-1.6, 0, 0, 1.6, -2327.9, -68.09)" xlink:href="#radial-gradient-9"/><filter id="luminosity-noclip" x="15.28" y="-19.38" width="48.36" height="48.36" filterUnits="userSpaceOnUse" color-interpolation-filters="sRGB"><feFlood flood-color="#fff" result="bg"/><feBlend in="SourceGraphic" in2="bg"/></filter><mask id="mask" x="125.05" y="205.53" width="48.36" height="48.36" maskUnits="userSpaceOnUse"><g class="cls-44"><g transform="translate(109.77 224.91)"><path class="cls-1" d="M22.36,21.9a24.18,24.18,0,1,1,34.2,0A24.18,24.18,0,0,1,22.36,21.9Z"/></g></g></mask></defs><g class="cls-3"><g id="圖層_2" data-name="圖層 2"><g id="圖層_1-2" data-name="圖層 1"><g class="cls-4"><g id="gem"><polygon class="cls-5" points="0.01 118.03 8.21 151.97 59.53 243.06 146.43 295.07 233.33 243.06 284.66 151.97 292.85 118.03 279.41 65.3 279.4 65.29 219.95 42.4 197.97 33.92 164.25 61.3 146.43 75.76 128.61 61.3 94.88 33.92 72.92 42.4 13.46 65.29 13.46 65.3 0.01 118.03"/><polygon class="cls-6" points="0.01 118.03 8.21 151.97 59.53 243.06 146.43 295.07 233.33 243.06 284.66 151.97 292.85 118.03 279.41 65.3 279.4 65.29 219.95 42.4 197.97 33.92 164.25 61.3 146.43 75.76 128.61 61.3 94.88 33.92 72.92 42.4 13.46 65.29 13.46 65.3 0.01 118.03"/><polygon class="cls-7" points="0.01 118.03 8.21 151.97 59.53 243.06 146.43 295.07 233.33 243.06 284.66 151.97 292.85 118.03 279.41 65.3 279.4 65.29 219.95 42.4 197.97 33.92 164.25 61.3 146.43 75.76 128.61 61.3 94.88 33.92 72.92 42.4 13.46 65.29 13.46 65.3 0.01 118.03"/><polygon class="cls-8" points="0.01 118.03 8.21 151.97 59.53 243.06 146.43 295.07 233.33 243.06 284.66 151.97 292.85 118.03 279.41 65.3 279.4 65.29 219.95 42.4 197.97 33.92 164.25 61.3 146.43 75.76 128.61 61.3 94.88 33.92 72.92 42.4 13.46 65.29 13.46 65.3 0.01 118.03"/><polygon class="cls-9" points="2.37 108.74 13.46 65.3 13.46 65.29 72.92 42.4 94.88 33.92 128.61 61.3 146.43 75.76 164.25 61.3 197.97 33.92 219.95 42.4 279.4 65.29 279.41 65.3 290.49 108.75 284.66 132.88 221.89 234.73 146.43 275.98 69.97 233 8.21 132.88 2.37 108.74"/><polygon class="cls-10" points="146.42 271.88 146.43 295.07 59.53 243.06 59.27 242.62 73.21 230.1 146.42 271.88"/><polygon class="cls-11" points="292.85 118.03 284.66 151.97 233.33 243.06 231.88 243.94 219.64 230.1 280.86 71.01 292.85 118.03"/><polygon class="cls-12" points="0 118.03 73.21 230.1 146.42 271.88 219.64 230.1 292.85 118.03 279.4 31.37 197.97 0 146.42 41.84 94.88 0 13.46 31.37 0 118.03"/><polygon class="cls-13" points="65.86 140.04 65.86 140.05 112.86 210.55 146.42 229.71 179.99 210.55 227 140.05 227 140.04 219.6 90.79 219.59 90.79 170.06 71.73 146.42 105.11 122.79 71.73 73.26 90.79 73.25 90.79 65.86 140.04"/><polygon class="cls-14" points="65.86 140.04 65.86 140.05 112.86 210.55 146.42 229.71 179.99 210.55 227 140.05 227 140.04 219.6 90.79 219.59 90.79 170.06 71.73 146.42 105.11 122.79 71.73 73.26 90.79 73.25 90.79 65.86 140.04"/><polygon class="cls-15" points="65.86 140.04 65.86 140.05 112.86 210.55 146.42 229.71 179.99 210.55 227 140.05 227 140.04 219.6 90.79 219.59 90.79 170.06 71.73 146.42 105.11 122.79 71.73 73.26 90.79 73.25 90.79 65.86 140.04"/><path class="cls-16" d="M-43.91-84.87h0l47,70.5L36.65,4.8,70.22-14.36l47-70.5h0l-7.4-49.24h0L60.29-153.17,36.65-119.8,13-153.17l-49.53,19.06h0Zm7.73-1.72,6.33-42.16,40.16-15.46,20.31,28.68,6,8.52,6-8.52L63-144.21l40.16,15.46,6.34,42.16L65-19.91,36.65-3.7,8.27-19.91Z" transform="translate(109.77 224.91)"/><path class="cls-17" d="M-43.91-84.87h0l47,70.5L36.65,4.8,70.22-14.36l47-70.5h0l-7.4-49.24h0L60.29-153.17,36.65-119.8,13-153.17l-49.53,19.06h0Zm7.73-1.72,6.33-42.16,40.16-15.46,20.31,28.68,6,8.52,6-8.52L63-144.21l40.16,15.46,6.34,42.16L65-19.91,36.65-3.7,8.27-19.91Z" transform="translate(109.77 224.91)"/><polygon class="cls-18" points="170.06 71.73 170.06 71.73 146.42 105.11 146.42 105.11 146.42 41.84 146.42 41.84 197.97 0.01 170.06 71.73"/><polygon class="cls-19" points="170.06 71.73 219.59 90.79 219.6 90.79 279.4 31.37 197.97 0 170.06 71.73"/><polygon class="cls-20" points="170.06 71.73 219.59 90.79 219.6 90.79 279.4 31.37 197.97 0 170.06 71.73"/><polygon class="cls-21" points="197.97 0 179.99 65.62 217.4 82.31 279.4 31.37 219.6 90.79 219.59 90.79 170.06 71.73 197.97 0"/><polygon class="cls-22" points="219.6 90.79 227 140.04 292.85 118.04 292.85 118.03 279.41 31.37 279.4 31.37 219.6 90.79"/><polygon class="cls-23" points="219.6 90.79 227 140.04 292.85 118.04 292.85 118.03 279.41 31.37 279.4 31.37 219.6 90.79"/><polygon class="cls-24" points="278.24 32.52 279.4 31.37 279.41 31.37 279.45 31.65 278.24 32.52"/><polygon class="cls-25" points="273.85 36.87 225.91 95.19 230.82 127.98 292.49 115.74 292.85 118.03 292.85 118.04 227 140.04 219.6 90.79 273.85 36.87"/><polygon class="cls-26" points="179.99 210.54 227 140.05 227 140.05 292.84 118.03 219.64 230.09 219.64 230.1 179.99 210.55 179.99 210.54"/><polygon class="cls-27" points="179.99 210.54 227 140.05 227 140.05 292.84 118.03 219.64 230.09 219.64 230.1 179.99 210.55 179.99 210.54"/><polygon class="cls-9" points="227 140.05 227 140.05 292.84 118.03 289.19 123.64 223.31 145.59 227 140.05"/><polygon class="cls-28" points="179.99 210.54 179.99 210.55 219.64 230.1 146.42 271.88 146.42 229.71 179.99 210.55 179.99 210.54"/><polygon class="cls-29" points="179.99 210.54 179.99 210.55 219.64 230.1 146.42 271.88 146.42 229.71 179.99 210.55 179.99 210.54"/><polygon class="cls-30" points="122.79 71.73 122.79 71.73 146.42 105.11 146.42 105.11 146.42 41.84 146.42 41.84 94.88 0.01 122.79 71.73"/><polygon class="cls-31" points="122.79 71.73 122.79 71.73 146.42 105.11 146.42 105.11 146.42 41.84 146.42 41.84 94.88 0.01 122.79 71.73"/><polygon class="cls-32" points="122.79 71.73 73.26 90.79 73.25 90.79 13.46 31.37 94.88 0 122.79 71.73"/><polygon class="cls-33" points="94.88 0 112.86 65.62 75.45 82.31 13.46 31.37 73.25 90.79 73.26 90.79 122.79 71.73 94.88 0"/><polygon class="cls-34" points="73.25 90.79 65.86 140.04 0 118.04 0 118.03 13.45 31.37 13.46 31.37 73.25 90.79"/><polygon class="cls-35" points="19 36.87 66.95 95.19 62.03 127.98 0.36 115.74 0 118.03 0 118.04 65.86 140.04 73.25 90.79 19 36.87"/><polygon class="cls-36" points="112.86 210.54 65.86 140.05 65.86 140.05 0.01 118.03 73.21 230.09 73.21 230.1 112.86 210.55 112.86 210.54"/><polygon class="cls-9" points="65.86 140.05 65.86 140.05 0.01 118.03 3.66 123.64 69.54 145.59 65.86 140.05"/><polygon class="cls-37" points="112.86 210.54 112.86 210.55 73.21 230.1 146.42 271.88 146.42 229.71 112.86 210.55 112.86 210.54"/><polygon class="cls-38" points="112.86 210.54 112.86 210.55 73.21 230.1 146.42 271.88 146.42 229.71 112.86 210.55 112.86 210.54"/><polygon class="cls-39" points="13.45 31.37 13.46 31.37 94.88 0.01 94.88 0.01 146.43 41.84 197.97 0.01 279.4 31.37 279.41 31.37 292.85 118.03 292.85 118.06 292.84 118.06 219.64 230.09 146.43 271.88 216.43 231.92 286.43 124.79 286.44 124.79 286.44 124.78 273.58 41.91 273.56 41.91 195.72 11.92 146.43 51.92 97.15 11.92 97.13 11.92 19.28 41.91 19.27 41.91 6.42 124.78 6.42 124.79 76.43 231.92 146.43 271.88 73.21 230.09 0.01 118.06 0.01 118.03 13.45 31.37"/><polygon class="cls-40" points="146.43 224.67 179.99 210.55 149.22 229.71 146.42 262.57 144.3 229.71 112.86 210.55 146.43 224.67"/><g id="glare"><path class="cls-41" d="M58.29,4.8A18.86,18.86,0,0,1,39.45-14,18.85,18.85,0,0,1,20.62,4.8,18.86,18.86,0,0,1,39.45,23.65,18.87,18.87,0,0,1,58.29,4.8Z" transform="translate(109.77 224.91)"/><g class="cls-42"><path class="cls-43" d="M24.6,19.66a21,21,0,1,1,29.72,0A21,21,0,0,1,24.6,19.66Z" transform="translate(109.77 224.91)"/></g></g></g></g></g></g></g></svg>