<svg xmlns="http://www.w3.org/2000/svg" xmlns:xlink="http://www.w3.org/1999/xlink" viewBox="0 0 305.17 312.31"><defs><style>.cls-1{fill:url(#鍊踑臇_蜸馯鳺艜_188);}.cls-2{fill:url(#鍊踑臇_蜸馯鳺艜_188-2);}.cls-3{fill:url(#鍊踑臇_蜸馯鳺艜_188-3);}.cls-4{fill:url(#鍊踑臇_蜸馯鳺艜_188-4);}.cls-5{fill:url(#鍊踑臇_蜸馯鳺艜_188-5);}.cls-6{fill:url(#鍊踑臇_蜸馯鳺艜_188-6);}.cls-7{fill:url(#鍊踑臇_蜸馯鳺艜_188-7);}.cls-8{fill:url(#鍊踑臇_蜸馯鳺艜_188-8);}.cls-9{fill:url(#鍊踑臇_蜸馯鳺艜_188-9);}.cls-10{fill:url(#鍊踑臇_蜸馯鳺艜_188-10);}.cls-11{fill:url(#鍊踑臇_蜸馯鳺艜_188-11);}.cls-12{fill:url(#鍊踑臇_蜸馯鳺艜_188-12);}.cls-13{isolation:isolate;}.cls-14{mask:url(#mask);}.cls-15{mix-blend-mode:screen;}.cls-16{fill:#fff;}.cls-17{mask:url(#mask-2);}.cls-18{mix-blend-mode:overlay;}.cls-19{mask:url(#mask-3);}.cls-20{mask:url(#mask-4);}.cls-21{mask:url(#mask-5);}.cls-22{mask:url(#mask-6);}.cls-23{mask:url(#mask-7);}.cls-24{mask:url(#mask-8);}.cls-25{mask:url(#mask-9);}.cls-26{mask:url(#mask-10);}.cls-27{mask:url(#mask-11);}.cls-28{mask:url(#mask-13);}</style><radialGradient id="鍊踑臇_蜸馯鳺艜_188" cx="1535.71" cy="695.36" r="6.85" gradientTransform="matrix(2.1, 0.14, -0.39, 6.01, -2844.92, -4225.37)" gradientUnits="userSpaceOnUse"><stop offset="0" stop-color="#fff"/><stop offset="0.12" stop-color="#c7c7c7"/><stop offset="0.24" stop-color="#929292"/><stop offset="0.37" stop-color="#666"/><stop offset="0.5" stop-color="#414141"/><stop offset="0.62" stop-color="#242424"/><stop offset="0.75" stop-color="#101010"/><stop offset="0.88" stop-color="#040404"/><stop offset="1"/></radialGradient><radialGradient id="鍊踑臇_蜸馯鳺艜_188-2" cx="1079.41" cy="748.6" r="25.1" gradientTransform="matrix(-1.04, 0.98, -3.54, -3.77, 3952.14, 1861.46)" xlink:href="#鍊踑臇_蜸馯鳺艜_188"/><radialGradient id="鍊踑臇_蜸馯鳺艜_188-3" cx="1661.55" cy="800.29" r="2.6" gradientTransform="matrix(1.55, -2.51, 5.09, 3.22, -6398.54, 1778.95)" xlink:href="#鍊踑臇_蜸馯鳺艜_188"/><radialGradient id="鍊踑臇_蜸馯鳺艜_188-4" cx="1662.29" cy="800.59" r="2.6" gradientTransform="matrix(1.55, -2.51, 5.09, 3.22, -6398.54, 1778.95)" xlink:href="#鍊踑臇_蜸馯鳺艜_188"/><radialGradient id="鍊踑臇_蜸馯鳺艜_188-5" cx="1661.81" cy="800.21" r="2.6" gradientTransform="matrix(1.55, -2.51, 5.09, 3.22, -6398.54, 1778.95)" xlink:href="#鍊踑臇_蜸馯鳺艜_188"/><radialGradient id="鍊踑臇_蜸馯鳺艜_188-6" cx="1224.5" cy="673.06" r="25.1" gradientTransform="matrix(-0.09, 1.43, -5.16, -0.33, 3711.45, -1388.43)" xlink:href="#鍊踑臇_蜸馯鳺艜_188"/><radialGradient id="鍊踑臇_蜸馯鳺艜_188-7" cx="1778.88" cy="773.42" r="7.86" gradientTransform="matrix(1.11, -1.79, 5.11, 3.18, -5799.45, 777.77)" xlink:href="#鍊踑臇_蜸馯鳺艜_188"/><radialGradient id="鍊踑臇_蜸馯鳺艜_188-8" cx="1735.95" cy="777.14" r="7.86" gradientTransform="matrix(1.11, -1.79, 5.11, 3.18, -5799.45, 777.77)" xlink:href="#鍊踑臇_蜸馯鳺艜_188"/><radialGradient id="鍊踑臇_蜸馯鳺艜_188-9" cx="1513.69" cy="666.15" r="21.88" gradientTransform="matrix(0.95, 1.07, -3.86, 3.44, 1346.5, -3672.43)" xlink:href="#鍊踑臇_蜸馯鳺艜_188"/><radialGradient id="鍊踑臇_蜸馯鳺艜_188-10" cx="1455.24" cy="702.35" r="6.85" gradientTransform="matrix(1.61, 1.36, -3.89, 4.59, 585.85, -4946.18)" xlink:href="#鍊踑臇_蜸馯鳺艜_188"/><radialGradient id="鍊踑臇_蜸馯鳺艜_188-11" cx="1401.12" cy="698.72" r="6.85" gradientTransform="matrix(1.23, 1.71, -4.89, 3.51, 1909.98, -4622.53)" xlink:href="#鍊踑臇_蜸馯鳺艜_188"/><radialGradient id="鍊踑臇_蜸馯鳺艜_188-12" cx="1661.74" cy="801.17" r="6.11" gradientTransform="matrix(1.55, -2.51, 5.09, 3.22, -6398.54, 1778.95)" xlink:href="#鍊踑臇_蜸馯鳺艜_188"/><mask id="mask" x="97.75" y="121.03" width="29.68" height="82.33" maskUnits="userSpaceOnUse"><path class="cls-1" d="M127.18,163.14c-1.48,22.72-9.14,40.72-17.1,40.21S96.87,184,98.35,161.25s9.15-40.73,17.11-40.21S128.67,140.4,127.18,163.14Z"/></mask><mask id="mask-2" x="85.94" y="0" width="185.29" height="195.97" maskUnits="userSpaceOnUse"><path class="cls-2" d="M152.42,122.84C103.36,70.64,75.3,17.32,89.73,3.76s65.91,17.75,115,70,77.14,105.52,62.7,119.09S201.5,175.06,152.42,122.84Z"/></mask><mask id="mask-3" x="-0.05" y="101.06" width="258.95" height="74.32" maskUnits="userSpaceOnUse"><path class="cls-6" d="M127.15,174.45C55.66,169.94-1.28,150.25,0,130.48s60.21-32.13,131.7-27.62,128.46,24.2,127.21,44S198.67,179,127.15,174.45Z"/></mask><mask id="mask-4" x="93.07" y="24.72" width="82.24" height="57.71" maskUnits="userSpaceOnUse"><path class="cls-7" d="M143,39.34c22.18,13.8,36.23,31.28,31.4,39.05s-26.74,2.88-48.91-10.92S89.2,36.18,94,28.41,120.77,25.53,143,39.34Z"/></mask><mask id="mask-5" x="64.24" y="113.36" width="82.24" height="57.71" maskUnits="userSpaceOnUse"><path class="cls-8" d="M114.13,128c22.17,13.8,36.23,31.29,31.4,39.06s-26.74,2.88-48.91-10.92-36.25-31.29-31.41-39.06S91.94,114.18,114.13,128Z"/></mask><mask id="mask-6" x="130.83" y="155.05" width="174.34" height="157.77" maskUnits="userSpaceOnUse"><path class="cls-9" d="M239.07,257.3c-46.59,41.59-93.68,64.86-105.18,52s16.94-57,63.54-98.63,93.69-64.87,105.19-52S285.68,215.69,239.07,257.3Z"/></mask><mask id="mask-7" x="161.25" y="229.16" width="58.01" height="65.65" maskUnits="userSpaceOnUse"><path class="cls-10" d="M201.4,271.34c-14.74,17.37-31.61,27.26-37.69,22.1s.92-23.42,15.66-40.79,31.61-27.26,37.7-22.1S216.14,254,201.4,271.34Z"/></mask><mask id="mask-8" x="186.66" y="204.41" width="69.27" height="53.65" maskUnits="userSpaceOnUse"><path class="cls-11" d="M229.84,243c-18.49,13.3-37.25,18.84-41.91,12.36s6.54-22.51,25-35.81,37.26-18.84,41.92-12.36S248.33,229.69,229.84,243Z"/></mask><mask id="mask-9" x="214.51" y="157.19" width="65.06" height="50.26" maskUnits="userSpaceOnUse"><path class="cls-12" d="M256.51,166.78c17.18,10.86,26.87,26.53,21.66,35s-23.38,6.55-40.56-4.3S210.73,171,216,162.48,239.32,155.92,256.51,166.78Z"/></mask><mask id="mask-10" x="231.13" y="168.29" width="27.66" height="21.37" maskUnits="userSpaceOnUse"><path class="cls-4" d="M249,172.37c7.31,4.62,11.43,11.28,9.21,14.88S248.25,190,241,185.42s-11.43-11.28-9.21-14.88S241.68,167.75,249,172.37Z"/></mask><mask id="mask-11" x="228.48" y="169.18" width="27.66" height="21.37" maskUnits="userSpaceOnUse"><path class="cls-3" d="M246.34,173.26c7.3,4.62,11.42,11.28,9.21,14.89s-9.94,2.78-17.25-1.83-11.43-11.28-9.21-14.89S239,168.65,246.34,173.26Z"/></mask><mask id="mask-13" x="228.49" y="168.28" width="27.66" height="21.37" maskUnits="userSpaceOnUse"><path class="cls-5" d="M246.34,172.36c7.31,4.61,11.43,11.27,9.21,14.88s-9.94,2.79-17.24-1.83-11.43-11.28-9.21-14.88S239,167.74,246.34,172.36Z"/></mask></defs><g class="cls-13"><g id="圖層_2" data-name="圖層 2"><g id="圖層_1-2" data-name="圖層 1"><g class="cls-14"><g class="cls-15"><path class="cls-16" d="M127.18,163.14c-1.48,22.72-9.49,40.7-17.45,40.18S96.52,184,98,161.23s9.5-40.71,17.46-40.19S128.67,140.4,127.18,163.14Z"/></g></g><path class="cls-16" d="M247.49,178.64a3.27,3.27,0,0,1-2.66,1.59c-27.39,1.28-29.81-1.3-30.72-2.28-2.29-2.44-5.63-6.52-7.61-9.13-1.57-2.06-.93-4.93.61-11.87,1.79-8,4.48-20.11,2.22-28.46s-8.36-10.93-13.75-13.21c-2.86-1.22-5.33-2.26-7-4.1-1.23-1.34-2.26-1.76-4.31-2.6a49.41,49.41,0,0,1-13-7.64c-6.66-5.16-8.69-12.19-10.32-17.83-1.22-4.24-2.28-7.9-4.87-9.67-4.79-3.26-9.41-8.19-13.12-12.14A46.75,46.75,0,0,0,137.55,56c-.42-.25-1-.62-1.71-1.09-4.74-3.08-15.84-10.28-25.33-9.46a3.27,3.27,0,0,1-.56-6.52c11.73-1,24.15,7.05,29.45,10.49.63.41,1.14.75,1.51,1,1.76,1.05,3.87,3.3,6.8,6.42,3.49,3.72,7.84,8.36,12,11.21,4.55,3.1,6,8.27,7.48,13.26,1.5,5.23,3.06,10.62,8,14.48a42.75,42.75,0,0,0,11.49,6.75,16.31,16.31,0,0,1,6.66,4.25c.71.78,2.75,1.65,4.72,2.48,5.75,2.44,14.43,6.13,17.52,17.53,2.68,9.9-.23,23-2.15,31.59a70.7,70.7,0,0,0-1.36,7.06c1.64,2.12,4.4,5.5,6.46,7.74,2.76,1,15.41,1,25.93.53a3.27,3.27,0,0,1,3,4.94Z"/><path class="cls-16" d="M215.29,129.32a3.34,3.34,0,0,1-1,1c-2.47,1.65-10.76,7-14.52,7.72-.06.22-.13.52-.19.76a15.58,15.58,0,0,1-1.49,4.19c-2.46,4.48-6.87,2.63-9,1.77a14.12,14.12,0,0,0-5.85-1.4c-5.36.16-8.28-2.58-10.85-5a23.61,23.61,0,0,0-4.88-3.81c-1.51-.85-2.9-.17-6.91,2.58-3,2-6.62,4.56-11.33,5.55-4.32.92-7.37,3.57-10.6,6.37-3,2.59-6.09,5.28-10.3,6.71-6.93,2.36-13.43-3.65-18.65-8.48-2.4-2.22-4.88-4.52-6.53-5.17a33.36,33.36,0,0,1-8.4-4.86,20.87,20.87,0,0,0-3.94-2.5,7.06,7.06,0,0,0-1.24-.47c-.15,0-.84.29-1.44.52a73.3,73.3,0,0,1-8.85,2.76c-11,2.78-16.93-4.57-19.76-8.1A15.78,15.78,0,0,0,58.26,128a3.27,3.27,0,0,1,4.24-5,16.78,16.78,0,0,1,2.18,2.43c3.33,4.16,6.61,7.47,13,5.85a64.3,64.3,0,0,0,8.12-2.54c3-1.13,4.3-1.39,7.65.08A26.48,26.48,0,0,1,98.7,132a27.5,27.5,0,0,0,6.88,4c2.8,1.09,5.62,3.7,8.6,6.46,3.94,3.65,8.85,8.19,12.09,7.08,3-1,5.49-3.17,8.12-5.45,3.54-3.08,7.56-6.56,13.54-7.83,3.43-.72,6.25-2.66,9-4.54,4-2.74,8.52-5.86,13.8-2.91a29.69,29.69,0,0,1,6.18,4.77c2.44,2.29,3.62,3.3,6.17,3.22a20.25,20.25,0,0,1,8.51,1.87l1.14.46a11.58,11.58,0,0,0,.53-1.84c.44-1.87,1.17-5,5.43-5.72,1.57-.26,7.48-3.68,12-6.71a3.27,3.27,0,0,1,4.62,4.4ZM193.44,139.4l0,0Z"/><g class="cls-17"><g class="cls-18"><path class="cls-16" d="M152.42,122.84c-49.06-52.2-76.49-106.11-62-119.68s65.9,17.76,115,70,76.5,106.12,62.06,119.69S201.5,175.06,152.42,122.84Z"/></g></g><g class="cls-19"><g class="cls-18"><path class="cls-16" d="M127.15,174.45C55.66,169.94-1.23,149.38,0,129.61S60.24,97.48,131.73,102s128.4,25.07,127.15,44.84S198.67,179,127.15,174.45Z"/></g></g><g class="cls-20"><g class="cls-15"><path class="cls-16" d="M143,39.34c22.18,13.8,36,31.63,31.19,39.4s-26.74,2.87-48.92-10.93S89.2,36.18,94,28.41,120.77,25.53,143,39.34Z"/></g></g><g class="cls-21"><g class="cls-15"><path class="cls-16" d="M114.13,128c22.17,13.8,36,31.63,31.19,39.4s-26.74,2.88-48.92-10.92-36-31.63-31.19-39.4S91.94,114.18,114.13,128Z"/></g></g><path class="cls-16" d="M192.87,268.46l-.19.14c-.75.49-18.47,12-30.2,12.68a2.86,2.86,0,0,1-.34-5.7c8.94-.53,23.06-9,26.6-11.24.78-2.18,2.83-7.07,6.25-9.85a83.2,83.2,0,0,0,8.46-8.9c-.59-2.06-1.2-5.54.33-8.29a7,7,0,0,1,5.29-3.46c5.51-.85,5.51-.85,9.23-2.77l1-.54a18.58,18.58,0,0,0,3.93-2.77,14.72,14.72,0,0,1,8-4c4-.71,10.75-5.38,13.51-7.48l4.8-7.52a6.84,6.84,0,0,1-2.23-2,7,7,0,0,1-.7-6.31c1.07-3.46,2-6.12,2.57-7.67l-6.4-8.24a2.85,2.85,0,0,1,4.5-3.5l7.38,9.49a2.85,2.85,0,0,1,.4,2.8s-1.34,3.44-3,8.81c-.09.3-.29,1-.06,1.38a3.58,3.58,0,0,0,2.1.84,2.85,2.85,0,0,1,2.24,4.38l-7.06,11.06a3,3,0,0,1-.66.71c-1,.79-10.11,7.76-16.38,8.88a9.23,9.23,0,0,0-5.3,2.75,24.17,24.17,0,0,1-5.05,3.53l-1,.53c-4.38,2.26-4.79,2.38-11,3.34-.93.14-1.1.46-1.17.59-.58,1-.06,3.58.53,5a2.86,2.86,0,0,1-.42,2.92c-.26.32-6.42,7.78-10.29,10.92-2.46,2-4.26,6.54-4.75,8.12A2.82,2.82,0,0,1,192.87,268.46Z"/><g class="cls-22"><g class="cls-18"><path class="cls-16" d="M239.07,257.3c-46.59,41.59-94.19,64.29-105.69,51.41s17-57,63.54-98.63,94.2-64.3,105.7-51.42S285.68,215.69,239.07,257.3Z"/></g></g><g class="cls-23"><g class="cls-15"><path class="cls-16" d="M201.4,271.34c-14.74,17.37-31.88,27-38,21.87s.93-23.42,15.66-40.79,31.88-27,38-21.87S216.14,254,201.4,271.34Z"/></g></g><g class="cls-24"><g class="cls-15"><path class="cls-16" d="M229.84,243c-18.49,13.3-37.46,18.55-42.12,12.08s6.55-22.51,25-35.81,37.46-18.56,42.12-12.08S248.33,229.69,229.84,243Z"/></g></g><g class="cls-25"><g class="cls-15"><path class="cls-16" d="M256.51,166.78c17.18,10.86,26.64,26.9,21.43,35.38s-23.38,6.56-40.56-4.3S210.73,171,216,162.48,239.32,155.92,256.51,166.78Z"/></g></g><g class="cls-26"><g class="cls-15"><path class="cls-16" d="M249,172.37c7.31,4.62,11.33,11.44,9.11,15s-9.94,2.79-17.24-1.83-11.33-11.44-9.11-15S241.68,167.75,249,172.37Z"/></g></g><g class="cls-27"><g class="cls-15"><path class="cls-16" d="M246.34,173.26c7.3,4.62,11.33,11.44,9.11,15s-9.94,2.79-17.25-1.83-11.33-11.43-9.11-15S239,168.65,246.34,173.26Z"/></g></g><g class="cls-26"><g class="cls-15"><path class="cls-16" d="M249,172.37c7.31,4.62,11.33,11.44,9.11,15s-9.94,2.79-17.24-1.83-11.33-11.44-9.11-15S241.68,167.75,249,172.37Z"/></g></g><g class="cls-28"><g class="cls-15"><path class="cls-16" d="M246.34,172.36c7.31,4.61,11.33,11.43,9.11,15s-9.94,2.78-17.24-1.83-11.33-11.44-9.11-15S239,167.74,246.34,172.36Z"/></g></g></g></g></g></svg>