<svg xmlns="http://www.w3.org/2000/svg" viewBox="0 0 133.41 120.15"><defs><style>.cls-1{isolation:isolate;}.cls-2,.cls-3{mix-blend-mode:multiply;}.cls-3{fill:#bdbcbf;}.cls-4{fill:#9f7122;}.cls-5{fill:#d4ab66;}.cls-6{fill:#d1a14e;}.cls-7{fill:#eddfc1;}.cls-8{fill:#dcc6a1;}</style></defs><g class="cls-1"><g id="圖層_2" data-name="圖層 2"><g id="圖層_1-2" data-name="圖層 1"><g class="cls-2"><path class="cls-3" d="M5.94,60.2C5.94,27,24.75,0,63.41,0s70,27,70,60.2c0,18.47-9.67,34-24.89,44.21C108.52,104.41,5.94,93.45,5.94,60.2Z"/></g><path class="cls-4" d="M0,61.61C0,29.28,28,3.07,62.45,3.07s62.46,26.21,62.46,58.54-28,58.54-62.46,58.54S0,93.94,0,61.61Z"/><path class="cls-5" d="M6.82,61.37C2,31,30.92,5.78,60.55,9a64.63,64.63,0,0,1,8.72.81,53.18,53.18,0,0,1,41.82,35.61,51.2,51.2,0,0,1,2,8.16c3.73,18.47,0,40-16.82,52.09-17.75,12.14-41.09,13.07-60.06,3.68a55.88,55.88,0,0,1-7-4.32A53.42,53.42,0,0,1,13.42,86.6,52.06,52.06,0,0,1,10.18,79,64.63,64.63,0,0,1,8,70.57,73.88,73.88,0,0,1,6.82,61.37Z"/><path class="cls-6" d="M6.82,61.37A73.88,73.88,0,0,0,8,70.57,64.63,64.63,0,0,0,10.18,79a52.06,52.06,0,0,0,3.24,7.62,53.42,53.42,0,0,0,15.83,18.46,55.88,55.88,0,0,0,7,4.32c19,9.39,42.31,8.46,60.06-3.68,16.8-12.14,20.55-33.62,16.82-52.09a51.2,51.2,0,0,0-2-8.16A53.18,53.18,0,0,0,69.27,9.84,64.63,64.63,0,0,0,60.55,9C30.92,5.78,2,31,6.82,61.37ZM25.2,31.67c9.11-12.43,48.6-21.16,64.05-9s25.55,34.33,20,56.9-21.62,25.57-21.62,25.57C43.83,123,16.66,90.64,12.15,74.38S16.11,44.08,25.2,31.67Z"/><path class="cls-7" d="M70.75,16.68s-32.62-3.62-48.93,16.1-14.49,40.92-3,54.39c0,0-14.52-23.31,4-48.77S70.75,16.68,70.75,16.68Z"/><path class="cls-7" d="M106.49,55.75s9.34,26.09-11.12,45.86c0,0-20.22,14.69-46.52,7.62,0,0,27.2,1.59,42.92-10.27S107.86,61,106.49,55.75Z"/><g class="cls-2"><path class="cls-8" d="M54.41,98.9c22.11,0,38.2-7.24,42.21-28,4-18.09-3-36.18-26.14-39.79C28.28,23.85,4,86.6,54.41,98.9Z"/></g></g></g></g></svg>