<svg xmlns="http://www.w3.org/2000/svg" viewBox="0 0 168.3 48.89"><defs><style>.cls-1{isolation:isolate;}.cls-2{fill:#8a8988;}.cls-11,.cls-2,.cls-9{mix-blend-mode:multiply;}.cls-3{fill:#165761;}.cls-4{fill:#2c779c;}.cls-5{mix-blend-mode:overlay;}.cls-6{fill:#b8b7b5;}.cls-7{fill:#abaaa8;}.cls-8{fill:#adacaa;}.cls-10{fill:#cccbc9;}.cls-11{fill:#9a9997;}.cls-12{fill:#165967;}.cls-13{fill:#5aaabb;}.cls-14{fill:#44a1b6;}.cls-15{fill:#b8d3e2;}.cls-16{fill:#92bec7;}</style></defs><g class="cls-1"><g id="圖層_2" data-name="圖層 2"><g id="圖層_1-2" data-name="圖層 1"><path class="cls-2" d="M102.64,43c32.21,0,52.43,2.48,57.37,1.09a11.27,11.27,0,0,0,6.13-5.12c2.88-7.75,2.88-19.25,0-27A11.18,11.18,0,0,0,160,6.82c-5-1.4-25.18-1.82-57.38-1.79s-61.08.39-66,1.78a11.25,11.25,0,0,0-6.13,5.11c-2.88,7.75-2.88,19.26,0,27A11.21,11.21,0,0,0,36.65,44c4.92,1.4,33.78-1.11,66-1.08Z"/><path class="cls-3" d="M32.45,35.66a8.58,8.58,0,0,0,5,4.68c8.72,1.91,113.05,1.91,121.77,0a8.58,8.58,0,0,0,5-4.68,50.84,50.84,0,0,0,0-23.34,8.61,8.61,0,0,0-5-4.68c-8.72-1.9-113-1.9-121.77,0a8.61,8.61,0,0,0-5,4.68A51,51,0,0,0,32.45,35.66Z"/><path class="cls-4" d="M32.82,35.78A6.38,6.38,0,0,0,37.37,40c8.87,1.14,113.07,1.14,121.93,0a6.38,6.38,0,0,0,4.55-4.25,117.6,117.6,0,0,0,0-23.58A6.4,6.4,0,0,0,159.3,8C150.44,6.81,46.24,6.81,37.37,8a6.38,6.38,0,0,0-4.55,4.25A117.6,117.6,0,0,0,32.82,35.78Z"/><g class="cls-5"><path class="cls-6" d="M158.37,40.22h0c-8.57.89-112,.9-120.48-.08h0s3,.31,8.63.31C52,40,152,40,158.37,40.22Z"/><path class="cls-6" d="M32.78,12.47c-.05,0,.27,2.09.48,6.47a153.37,153.37,0,0,1-.44,16.84,119.44,119.44,0,0,1,0-23.31Z"/><path class="cls-6" d="M158.37,7.76h0s-3-.3-8.54-.31c-5.41.47-105.36.46-111.8.36h0C46.5,6.87,149.85,6.87,158.37,7.76Z"/><path class="cls-6" d="M164,34.94h0s-.35-2.13-.66-6.3A72.21,72.21,0,0,1,164,13.18h0A131.75,131.75,0,0,1,164,34.94Z"/></g><g class="cls-5"><path class="cls-7" d="M144,8.45c4.28-.09,8.49-.17,12.5,1.71,6.62,3.12,5.74,7.74,5,11.91-.41,4.24,1.8,8.11-1.84,12.46-3.83,5.1-10.36,5.37-15.9,4.69-4.13-.51-104.4.1-107.06-3.77-2.85-3.44-1.35-9.39-1.5-12.91-.63-3.63-2.14-9.22,3.69-12.23C43.15,8.36,139.41,9.13,144,8.45Z"/></g><g class="cls-5"><path class="cls-8" d="M37.37,8C46.24,6.81,150.44,6.81,159.3,8a6.4,6.4,0,0,1,4.55,4.25,97.75,97.75,0,0,1,.56,13.43c-2.59-.38-8.53-2.16-16.3-2.7s-105.94-.1-115.84,2.59a94.71,94.71,0,0,1,.55-13.32A6.38,6.38,0,0,1,37.37,8Z"/></g><g class="cls-9"><path class="cls-10" d="M37.45,7.64c2.76-.6,15.09-1,30.92-1.23-1.2.37,12.38.73,11.16,1.13-7,2.22-28.8,4.07-30.28,13.3C47.4,32.29,51.09,37.09,60,39.68a49.86,49.86,0,0,0,10.81,1.93c-17-.21-30.42-.63-33.32-1.27a8.58,8.58,0,0,1-5-4.68,51,51,0,0,1,0-23.34A8.61,8.61,0,0,1,37.45,7.64Z"/><path class="cls-10" d="M140.84,38.57c8.87-4.8,17.73-19.21,8.87-28.07a17.92,17.92,0,0,0-5.92-3.78c8,.23,13.67.54,15.43.92a8.61,8.61,0,0,1,5,4.68,50.84,50.84,0,0,1,0,23.34,8.58,8.58,0,0,1-5,4.68c-2.46.54-12.52.93-25.9,1.16A40.3,40.3,0,0,0,140.84,38.57Z"/></g><g class="cls-9"><path class="cls-11" d="M2.42,24.49C2.42,11,10.07,0,25.8,0S54.28,11,54.28,24.49c0,7.52-3.93,13.85-10.12,18C44.16,42.48,2.42,38,2.42,24.49Z"/></g><path class="cls-12" d="M0,25.07C0,11.91,11.38,1.25,25.41,1.25S50.82,11.91,50.82,25.07,39.44,48.89,25.41,48.89,0,38.22,0,25.07Z"/><path class="cls-13" d="M2.78,25c-2-12.36,9.8-22.62,21.86-21.3A26.9,26.9,0,0,1,28.18,4,21.59,21.59,0,0,1,46,21.81c1.51,7.52,0,16.26-6.85,21.2A24.4,24.4,0,0,1,14.74,44.5a20.69,20.69,0,0,1-2.84-1.76,21.78,21.78,0,0,1-6.44-7.5,21.23,21.23,0,0,1-1.32-3.1A27.27,27.27,0,0,1,2.78,25Z"/><path class="cls-14" d="M2.78,25a27.27,27.27,0,0,0,1.36,7.17,21.23,21.23,0,0,0,1.32,3.1,21.78,21.78,0,0,0,6.44,7.5,20.69,20.69,0,0,0,2.84,1.76A24.4,24.4,0,0,0,39.17,43C46,38.07,47.53,29.33,46,21.81A21.59,21.59,0,0,0,28.18,4a26.9,26.9,0,0,0-3.54-.33C12.58,2.35.8,12.61,2.78,25Zm7.48-12.08C14,7.83,30,4.27,36.31,9.22a22.92,22.92,0,0,1,8.13,23.15c-2.26,9.18-8.79,10.41-8.79,10.41C17.83,50,6.78,36.88,4.94,30.26S6.55,17.93,10.26,12.89Z"/><path class="cls-15" d="M28.78,6.78S15.52,5.31,8.88,13.34,3,30,7.67,35.47A18.2,18.2,0,0,1,9.29,15.62C16.81,5.27,28.78,6.78,28.78,6.78Z"/><path class="cls-15" d="M43.33,22.68s3.8,10.62-4.53,18.66a23.81,23.81,0,0,1-18.92,3.11s11.06.64,17.46-4.19S43.88,24.84,43.33,22.68Z"/><g class="cls-9"><path class="cls-16" d="M22.14,40.24c9,0,15.54-2.94,17.17-11.41C41,21.47,38.09,14.11,28.68,12.64,11.51,9.7,1.64,35.24,22.14,40.24Z"/></g></g></g></g></svg>