<svg xmlns="http://www.w3.org/2000/svg" viewBox="0 0 54.28 48.89"><defs><style>.cls-1{fill:#979a98;}.cls-2{fill:#671650;}.cls-3{fill:#bb5a9f;}.cls-4{fill:#b64494;}.cls-5{fill:#e2b8cf;}.cls-6{fill:#c792b8;}</style></defs><g id="圖層_2" data-name="圖層 2"><g id="圖層_1-2" data-name="圖層 1"><g id="圖層_2-2" data-name="圖層 2"><g id="圖層_1-2-2" data-name="圖層 1-2"><path class="cls-1" d="M2.42,24.49C2.42,11,10.07,0,25.8,0S54.28,11,54.28,24.49c0,7.52-3.93,13.85-10.12,18C44.16,42.48,2.42,38,2.42,24.49Z"/><path class="cls-2" d="M0,25.07C0,11.91,11.38,1.25,25.41,1.25S50.82,11.91,50.82,25.07,39.44,48.89,25.41,48.89,0,38.22,0,25.07Z"/><path class="cls-3" d="M2.78,25c-2-12.36,9.8-22.62,21.86-21.3a26.14,26.14,0,0,1,3.54.3A21.59,21.59,0,0,1,46,21.81c1.51,7.52,0,16.26-6.85,21.2A24.41,24.41,0,0,1,14.74,44.5a21.31,21.31,0,0,1-2.84-1.76,21.74,21.74,0,0,1-7.76-10.6A27.17,27.17,0,0,1,2.78,25Z"/><path class="cls-4" d="M2.78,25a27.39,27.39,0,0,0,1.36,7.17,21.74,21.74,0,0,0,7.76,10.6,21.31,21.31,0,0,0,2.84,1.76A24.4,24.4,0,0,0,39.17,43C46,38.07,47.53,29.33,46,21.81A21.59,21.59,0,0,0,28.18,4a26.17,26.17,0,0,0-3.54-.33C12.58,2.35.8,12.61,2.78,25Zm7.48-12.08C14,7.83,30,4.27,36.31,9.22a22.91,22.91,0,0,1,8.13,23.15c-2.26,9.18-8.79,10.41-8.79,10.41C17.83,50,6.78,36.88,4.94,30.26s1.61-12.33,5.32-17.37Z"/><path class="cls-5" d="M28.78,6.78S15.52,5.31,8.88,13.34,3,30,7.67,35.47A18.21,18.21,0,0,1,9.29,15.62C16.81,5.27,28.78,6.78,28.78,6.78Z"/><path class="cls-5" d="M43.33,22.68s3.8,10.62-4.53,18.66a23.82,23.82,0,0,1-18.92,3.11s11.06.64,17.46-4.19S43.88,24.84,43.33,22.68Z"/><path class="cls-6" d="M22.14,40.24c9,0,15.54-2.94,17.17-11.41C41,21.47,38.09,14.11,28.68,12.64,11.51,9.7,1.64,35.24,22.14,40.24Z"/></g></g></g></g></svg>