<svg xmlns="http://www.w3.org/2000/svg" viewBox="0 0 267.03 78.62"><defs><style>.cls-1{isolation:isolate;}.cls-2{fill:#b3b3b5;}.cls-11,.cls-2,.cls-9{mix-blend-mode:multiply;}.cls-3{fill:#9c6d23;}.cls-4{fill:#c19336;}.cls-5{mix-blend-mode:overlay;}.cls-6{fill:#d0cfd2;}.cls-7{fill:#c8c7ca;}.cls-8{fill:#c9c8cb;}.cls-10{fill:#dddcdf;}.cls-11{fill:#bdbcbf;}.cls-12{fill:#9f7122;}.cls-13{fill:#d4ab66;}.cls-14{fill:#d1a14e;}.cls-15{fill:#eddfc1;}.cls-16{fill:#dcc6a1;}</style></defs><g class="cls-1"><g id="圖層_2" data-name="圖層 2"><g id="圖層_1-2" data-name="圖層 1"><path class="cls-2" d="M165.06,69.08c51.79,0,80.69,4,88.63,1.75,4-1.26,8.45-5,9.86-8.22,4.64-12.47,4.64-31,0-43.38-1.43-3.26-5.89-7-9.85-8.26-8-2.26-36.87-2.93-88.65-2.88S66.86,8.72,59,11c-4,1.26-8.46,5-9.86,8.22-4.63,12.46-4.64,31,0,43.38,1.42,3.25,5.89,7,9.85,8.26,7.93,2.25,54.33-1.79,106.13-1.74Z"/><path class="cls-3" d="M52.19,57.35c.91,2.9,4.6,6.43,8,7.53,14,3.06,178.17,3.06,192.2,0,3.43-1.1,7.12-4.63,8-7.53a82.08,82.08,0,0,0,0-37.54c-.92-2.9-4.61-6.42-8-7.52-14-3.06-178.18-3.06-192.2,0-3.44,1.1-7.13,4.62-8,7.52A81.8,81.8,0,0,0,52.19,57.35Z"/><path class="cls-4" d="M52.78,57.54c.57,2.86,3.86,6,7.32,6.84,14.26,1.83,178.2,1.83,192.45,0,3.46-.83,6.75-4,7.32-6.84a189.92,189.92,0,0,0,0-37.92c-.56-2.85-3.85-6-7.31-6.83C238.3,11,74.36,11,60.1,12.79c-3.46.82-6.76,4-7.32,6.83A190.67,190.67,0,0,0,52.78,57.54Z"/><g class="cls-5"><path class="cls-6" d="M251.05,64.68h0C237.29,66.12,74.6,66.14,61,64.56h0s4.85.49,13.87.49C83.61,64.29,240.75,64.26,251.05,64.68Z"/><path class="cls-6" d="M52.71,20.05c-.07.07.44,3.36.77,10.4.42,6.83-.07,17.41-.7,27.09a192.46,192.46,0,0,1-.07-37.49Z"/><path class="cls-6" d="M251.05,12.48h0c-.05,0-4.81-.48-13.73-.5-8.7.75-165.8.74-176.16.58h0C74.77,11,237.35,11.05,251.05,12.48Z"/><path class="cls-6" d="M260.07,56.2h0c.06,0-.57-3.43-1.06-10.14a116.33,116.33,0,0,1,1.09-24.85h0A211.93,211.93,0,0,1,260.07,56.2Z"/></g><g class="cls-5"><path class="cls-7" d="M228,13.59c6.88-.14,13.64-.28,20.09,2.75,10.65,5,9.23,12.44,8.07,19.14-.65,6.83,2.91,13.05-3,20.05-6.17,8.2-16.66,8.63-25.57,7.54C221,62.25,63.39,63.23,59.12,57,54.54,51.47,57,41.9,56.7,36.25c-1-5.83-3.43-14.83,5.94-19.66C69.39,13.45,220.57,14.67,228,13.59Z"/></g><g class="cls-5"><path class="cls-8" d="M60.1,12.79C74.36,11,238.3,11,252.55,12.79c3.46.82,6.75,4,7.31,6.83,1,6.71.88,14.22.91,21.6-4.16-.61-13.73-3.48-26.22-4.34S67.82,36.72,51.89,41.05c0-7.33-.11-14.76.89-21.43C53.34,16.76,56.64,13.61,60.1,12.79Z"/></g><g class="cls-9"><path class="cls-10" d="M60.23,12.29c4.44-1,24.25-1.63,49.72-2-1.93.6,19.9,1.18,18,1.83-11.28,3.56-46.32,6.53-48.7,21.39-3,18.4,3,26.13,17.22,30.28a80.19,80.19,0,0,0,17.38,3.11c-27.3-.34-48.91-1-53.57-2-3.44-1.1-7.13-4.63-8-7.53a81.8,81.8,0,0,1,0-37.54C53.1,16.91,56.79,13.39,60.23,12.29Z"/><path class="cls-10" d="M222.87,62c14.25-7.72,28.51-30.88,14.25-45.14a28.87,28.87,0,0,0-9.52-6.08c12.86.38,22,.87,24.83,1.49,3.43,1.1,7.12,4.62,8,7.52a82.08,82.08,0,0,1,0,37.54c-.92,2.9-4.61,6.43-8,7.53-4,.86-20.15,1.48-41.66,1.86A64.34,64.34,0,0,0,222.87,62Z"/></g><g class="cls-9"><path class="cls-11" d="M3.88,39.39C3.88,17.63,16.2,0,41.49,0s45.8,17.63,45.8,39.39C87.29,51.47,81,61.65,71,68.32,71,68.32,3.88,61.15,3.88,39.39Z"/></g><path class="cls-12" d="M0,40.31C0,19.16,18.29,2,40.86,2s40.87,17.15,40.87,38.3S63.43,78.62,40.86,78.62,0,61.46,0,40.31Z"/><path class="cls-13" d="M4.46,40.16C1.29,20.28,20.23,3.78,39.62,5.91a40.36,40.36,0,0,1,5.7.53,34.81,34.81,0,0,1,27.37,23.3A33.59,33.59,0,0,1,74,35.08c2.44,12.08,0,26.14-11,34.08C51.38,77.1,36.11,77.71,23.7,71.57a35.44,35.44,0,0,1-4.56-2.83A35.08,35.08,0,0,1,8.78,56.67a34.45,34.45,0,0,1-2.12-5,41.48,41.48,0,0,1-1.45-5.51A47.44,47.44,0,0,1,4.46,40.16Z"/><path class="cls-14" d="M4.46,40.16a47.44,47.44,0,0,0,.75,6,41.48,41.48,0,0,0,1.45,5.51,34.45,34.45,0,0,0,2.12,5A35.08,35.08,0,0,0,19.14,68.74a35.44,35.44,0,0,0,4.56,2.83C36.11,77.71,51.38,77.1,63,69.16c11-7.94,13.45-22,11-34.08a33.59,33.59,0,0,0-1.31-5.34A34.81,34.81,0,0,0,45.32,6.44a40.36,40.36,0,0,0-5.7-.53C20.23,3.78,1.29,20.28,4.46,40.16Zm12-19.44c6-8.13,31.8-13.85,41.91-5.89S75.12,37.29,71.47,52.05,57.33,68.79,57.33,68.79C28.68,80.44,10.9,59.31,8,48.67S10.54,28.84,16.49,20.72Z"/><path class="cls-15" d="M46.29,10.91S25,8.54,14.28,21.45,4.8,48.22,12.34,57c0,0-9.51-15.26,2.6-31.92S46.29,10.91,46.29,10.91Z"/><path class="cls-15" d="M69.68,36.48s6.11,17.07-7.28,30a38.3,38.3,0,0,1-30.44,5s17.8,1,28.09-6.72S70.57,39.94,69.68,36.48Z"/><g class="cls-9"><path class="cls-16" d="M35.6,64.71c14.47,0,25-4.73,27.62-18.34,2.63-11.84-2-23.68-17.1-26C18.5,15.6,2.64,56.67,35.6,64.71Z"/></g></g></g></g></svg>