<?xml version="1.0" encoding="UTF-8"?><svg xmlns="http://www.w3.org/2000/svg" xmlns:xlink="http://www.w3.org/1999/xlink" viewBox="0 0 1896.7 2501.1"><defs><style>.uuid-56301ceb-376f-4a11-bc35-f60bcc244876{fill:url(#uuid-43ff2739-5fb0-4dcf-ba83-74b84dcbe781);}.uuid-56301ceb-376f-4a11-bc35-f60bcc244876,.uuid-371db455-cc85-4b8b-b32b-9cb7d9395f49,.uuid-d015a5fa-bef8-4370-b682-23f1790ab4c0,.uuid-14dc1190-a36c-4fbd-aa93-767bc41c8485,.uuid-1a6375b1-4cc0-4e99-afe8-5152c3129508,.uuid-e5ef2935-5878-4d5e-ba28-6a64f78c49f5,.uuid-0e6275f2-686e-43c5-88b7-c8e40a642994,.uuid-19384c84-7ffe-48c3-9f4b-073fa0dd250b,.uuid-723f7aeb-7d0a-4e75-bca5-8885c1107e0a,.uuid-fe2cb339-d2c2-43ae-82f0-b394c1eaf647,.uuid-321802a3-26c0-46e8-970e-8dba33eb002b,.uuid-43e1744b-94fd-4149-8d00-5f081c983265,.uuid-5e84777f-c83a-4fe4-8eb8-c2f982b80c86,.uuid-2ef640ff-954b-40bd-b6a3-bfb858a06731,.uuid-43904d93-0f58-40d9-83e2-7950ccd41912,.uuid-aa1b821c-ab99-487a-a2fb-2cb5b73d1f1a,.uuid-d1e437a2-7602-402f-8900-e55a1fb96cfb,.uuid-14ebcf1b-1a66-48c1-8dd1-8cbf2d8cd813,.uuid-af3f9607-0745-4f2d-9b9c-fb77a95e0b86,.uuid-54fd35e1-47c3-479c-98f1-99f2326f4b7c{mix-blend-mode:overlay;}.uuid-371db455-cc85-4b8b-b32b-9cb7d9395f49{fill:url(#uuid-3a08603e-b8c8-4d54-aae9-bc15441ce239);}.uuid-d015a5fa-bef8-4370-b682-23f1790ab4c0{fill:url(#uuid-372f66b2-e959-4d36-bde3-989ddc3fcd5a);}.uuid-14dc1190-a36c-4fbd-aa93-767bc41c8485{fill:url(#uuid-165861ef-74c0-4f5e-9ee9-307272a10676);}.uuid-1a6375b1-4cc0-4e99-afe8-5152c3129508{fill:url(#uuid-f3877fa8-2113-41b4-9d9b-c4675b3c85ad);}.uuid-e5ef2935-5878-4d5e-ba28-6a64f78c49f5{fill:url(#uuid-d44a935f-4ff5-464b-bd5a-b13afbf10559);}.uuid-0e6275f2-686e-43c5-88b7-c8e40a642994{fill:url(#uuid-57d8f893-9000-4068-b91f-f06adb5190b3);}.uuid-19384c84-7ffe-48c3-9f4b-073fa0dd250b{fill:url(#uuid-9da7dee9-b40c-4877-bd69-bc98cab4bf23);}.uuid-723f7aeb-7d0a-4e75-bca5-8885c1107e0a{fill:url(#uuid-61a16fad-5966-4199-832a-b45c284946bd);}.uuid-fe2cb339-d2c2-43ae-82f0-b394c1eaf647{fill:url(#uuid-08efbfb0-ad14-41a5-bd0a-d022d448ff93);}.uuid-321802a3-26c0-46e8-970e-8dba33eb002b{fill:url(#uuid-3d605869-514e-4283-96b1-0e2e9b44e8b7);}.uuid-43e1744b-94fd-4149-8d00-5f081c983265{fill:url(#uuid-c0b04cab-a816-42a3-8e1b-60907fdfbb6f);}.uuid-5e84777f-c83a-4fe4-8eb8-c2f982b80c86{fill:url(#uuid-7d2a2389-6241-44f5-9c70-839692bb419c);}.uuid-7370a6a0-ab1b-41ce-a288-db74cbcb5c10{opacity:.6;}.uuid-2ef640ff-954b-40bd-b6a3-bfb858a06731{fill:url(#uuid-f34b1180-0a0f-47ae-b5a5-e4b365521fcb);}.uuid-43904d93-0f58-40d9-83e2-7950ccd41912{fill:url(#uuid-d1a8f11d-3c08-4e77-8c95-4b86ce5088f5);}.uuid-aa1b821c-ab99-487a-a2fb-2cb5b73d1f1a{fill:url(#uuid-b80d1fcf-0558-4346-bfae-f7ff6a94a781);}.uuid-d1e437a2-7602-402f-8900-e55a1fb96cfb{fill:url(#uuid-32a77d1c-863c-430e-a962-4b28b7968430);}.uuid-14ebcf1b-1a66-48c1-8dd1-8cbf2d8cd813{fill:url(#uuid-555aad28-be36-4677-91af-6533f3b50d00);}.uuid-953c3fb8-39b2-48b3-a828-609811f46047{isolation:isolate;}.uuid-af3f9607-0745-4f2d-9b9c-fb77a95e0b86{fill:url(#uuid-898f58b0-b7f3-416e-b283-34b5d47e9293);}.uuid-54fd35e1-47c3-479c-98f1-99f2326f4b7c{fill:url(#uuid-998b6ed7-9061-4e6c-9d7e-fddd03461d83);}</style><linearGradient id="uuid-3d605869-514e-4283-96b1-0e2e9b44e8b7" x1="181" y1="4623.5" x2="1347.5" y2="4623.5" gradientTransform="translate(4778.8 3396.7) rotate(-80.2) scale(1.8 -1)" gradientUnits="userSpaceOnUse"><stop offset="0" stop-color="#fff"/><stop offset="1" stop-color="#000"/></linearGradient><linearGradient id="uuid-372f66b2-e959-4d36-bde3-989ddc3fcd5a" x1="191.5" y1="-1215.3" x2="1366" y2="-1215.3" gradientTransform="translate(3283.1 3139.8) rotate(-80.2) scale(1.8 2.7)" xlink:href="#uuid-3d605869-514e-4283-96b1-0e2e9b44e8b7"/><linearGradient id="uuid-b80d1fcf-0558-4346-bfae-f7ff6a94a781" x1="203" y1="-17325.4" x2="1366" y2="-17325.4" gradientTransform="translate(4235 3304.1) rotate(-80.2) scale(1.8 .2)" xlink:href="#uuid-3d605869-514e-4283-96b1-0e2e9b44e8b7"/><linearGradient id="uuid-57d8f893-9000-4068-b91f-f06adb5190b3" x1="187.7" y1="1310.9" x2="1372.1" y2="1310.9" gradientTransform="translate(6242.9 3650.1) rotate(-80.2) scale(1.8 -4.8)" gradientUnits="userSpaceOnUse"><stop offset="0" stop-color="#fff"/><stop offset="1" stop-color="#000"/></linearGradient><linearGradient id="uuid-d44a935f-4ff5-464b-bd5a-b13afbf10559" x1="74.9" y1="4634.8" x2="1241.3" y2="4634.8" gradientTransform="translate(4778.8 3396.7) rotate(-80.2) scale(1.8 -1)" gradientUnits="userSpaceOnUse"><stop offset="0" stop-color="#000"/><stop offset="1" stop-color="#fff"/></linearGradient><linearGradient id="uuid-3a08603e-b8c8-4d54-aae9-bc15441ce239" x1="98.4" y1="-4119" x2="1264.8" y2="-4119" gradientTransform="translate(4354.4 764) rotate(99.8) scale(1.8 -1)" xlink:href="#uuid-3d605869-514e-4283-96b1-0e2e9b44e8b7"/><linearGradient id="uuid-898f58b0-b7f3-416e-b283-34b5d47e9293" x1="107.7" y1="2032.4" x2="1282.1" y2="2032.4" gradientTransform="translate(5850 1020.8) rotate(99.8) scale(1.8 2.7)" xlink:href="#uuid-3d605869-514e-4283-96b1-0e2e9b44e8b7"/><linearGradient id="uuid-32a77d1c-863c-430e-a962-4b28b7968430" x1="119.2" y1="17842.2" x2="1282.1" y2="17842.2" gradientTransform="translate(4898.1 856.5) rotate(99.8) scale(1.8 .2)" xlink:href="#uuid-3d605869-514e-4283-96b1-0e2e9b44e8b7"/><linearGradient id="uuid-61a16fad-5966-4199-832a-b45c284946bd" x1="103.9" y1="-510" x2="1288.2" y2="-510" gradientTransform="translate(2890.2 510.5) rotate(99.8) scale(1.8 -4.8)" xlink:href="#uuid-57d8f893-9000-4068-b91f-f06adb5190b3"/><linearGradient id="uuid-9da7dee9-b40c-4877-bd69-bc98cab4bf23" x1="-8.8" y1="-4105.1" x2="1157.6" y2="-4105.1" gradientTransform="translate(4354.4 764) rotate(99.8) scale(1.8 -1)" xlink:href="#uuid-d44a935f-4ff5-464b-bd5a-b13afbf10559"/><linearGradient id="uuid-998b6ed7-9061-4e6c-9d7e-fddd03461d83" x1="324" y1="3294.1" x2="1490.4" y2="3294.1" xlink:href="#uuid-3d605869-514e-4283-96b1-0e2e9b44e8b7"/><linearGradient id="uuid-f34b1180-0a0f-47ae-b5a5-e4b365521fcb" x1="334.4" y1="-721.3" x2="1508.9" y2="-721.3" gradientTransform="translate(3283.1 3139.8) rotate(-80.2) scale(1.8 2.7)" xlink:href="#uuid-3d605869-514e-4283-96b1-0e2e9b44e8b7"/><linearGradient id="uuid-7d2a2389-6241-44f5-9c70-839692bb419c" x1="345.9" y1="-11976" x2="1508.9" y2="-11976" gradientTransform="translate(4235 3304.1) rotate(-80.2) scale(1.8 .2)" xlink:href="#uuid-3d605869-514e-4283-96b1-0e2e9b44e8b7"/><linearGradient id="uuid-43ff2739-5fb0-4dcf-ba83-74b84dcbe781" x1="330.6" y1="1033.9" x2="1515" y2="1033.9" xlink:href="#uuid-57d8f893-9000-4068-b91f-f06adb5190b3"/><linearGradient id="uuid-08efbfb0-ad14-41a5-bd0a-d022d448ff93" x1="217.8" y1="3305.3" x2="1384.2" y2="3305.3" xlink:href="#uuid-d44a935f-4ff5-464b-bd5a-b13afbf10559"/><linearGradient id="uuid-555aad28-be36-4677-91af-6533f3b50d00" x1="-44.5" y1="-2789.6" x2="1121.9" y2="-2789.6" gradientTransform="translate(4354.4 764) rotate(99.8) scale(1.8 -1)" xlink:href="#uuid-3d605869-514e-4283-96b1-0e2e9b44e8b7"/><linearGradient id="uuid-165861ef-74c0-4f5e-9ee9-307272a10676" x1="-35.2" y1="1538.4" x2="1139.2" y2="1538.4" gradientTransform="translate(5850 1020.8) rotate(99.8) scale(1.8 2.7)" xlink:href="#uuid-3d605869-514e-4283-96b1-0e2e9b44e8b7"/><linearGradient id="uuid-d1a8f11d-3c08-4e77-8c95-4b86ce5088f5" x1="-23.7" y1="12492.8" x2="1139.2" y2="12492.8" gradientTransform="translate(4898.1 856.5) rotate(99.8) scale(1.8 .2)" xlink:href="#uuid-3d605869-514e-4283-96b1-0e2e9b44e8b7"/><linearGradient id="uuid-f3877fa8-2113-41b4-9d9b-c4675b3c85ad" x1="-39" y1="-233" x2="1145.3" y2="-233" gradientTransform="translate(2890.2 510.5) rotate(99.8) scale(1.8 -4.8)" xlink:href="#uuid-57d8f893-9000-4068-b91f-f06adb5190b3"/><linearGradient id="uuid-c0b04cab-a816-42a3-8e1b-60907fdfbb6f" x1="-151.7" y1="-2775.6" x2="1014.7" y2="-2775.6" gradientTransform="translate(4354.4 764) rotate(99.8) scale(1.8 -1)" xlink:href="#uuid-d44a935f-4ff5-464b-bd5a-b13afbf10559"/></defs><g class="uuid-953c3fb8-39b2-48b3-a828-609811f46047"><g id="uuid-ec8d9012-bd06-4fc1-9d70-067293082aa2"><g id="uuid-59c8b6ba-abac-4bd4-8b0f-def6c3e76e62"><g><g><g><polygon class="uuid-321802a3-26c0-46e8-970e-8dba33eb002b" points="488.7 213.6 366.6 2298.2 421.1 2316.2 543.2 231.6 488.7 213.6"/><polygon class="uuid-d015a5fa-bef8-4370-b682-23f1790ab4c0" points="431.3 194.7 309.1 2279.3 162.5 2231.1 284.7 146.5 431.3 194.7"/><polygon class="uuid-aa1b821c-ab99-487a-a2fb-2cb5b73d1f1a" points="298.2 150.9 176 2235.5 162.5 2231.1 284.6 146.5 298.2 150.9"/><polygon class="uuid-0e6275f2-686e-43c5-88b7-c8e40a642994" points="210 121.9 87.9 2206.5 349.4 2292.6 471.5 208 210 121.9"/><polygon class="uuid-e5ef2935-5878-4d5e-ba28-6a64f78c49f5" points="445.4 398.5 323.2 2483.2 377.7 2501.1 499.8 416.5 445.4 398.5"/></g><g class="uuid-7370a6a0-ab1b-41ce-a288-db74cbcb5c10"><polygon class="uuid-371db455-cc85-4b8b-b32b-9cb7d9395f49" points="54.5 2314.2 176.6 229.6 122.1 211.7 0 2296.3 54.5 2314.2"/><polygon class="uuid-af3f9607-0745-4f2d-9b9c-fb77a95e0b86" points="114.9 2331.7 237 247.1 383.7 295.4 261.5 2380 114.9 2331.7"/><polygon class="uuid-d1e437a2-7602-402f-8900-e55a1fb96cfb" points="248 2375.5 370.1 290.9 383.7 295.4 261.5 2380 248 2375.5"/><polygon class="uuid-723f7aeb-7d0a-4e75-bca5-8885c1107e0a" points="336.2 2404.6 458.3 320 196.8 233.9 74.7 2318.5 336.2 2404.6"/><polygon class="uuid-19384c84-7ffe-48c3-9f4b-073fa0dd250b" points="100.8 2127.9 223 43.3 168.5 25.4 46.3 2110 100.8 2127.9"/></g></g><g><g><polygon class="uuid-54fd35e1-47c3-479c-98f1-99f2326f4b7c" points="1842.2 188.2 1720 2272.9 1774.5 2290.8 1896.7 206.2 1842.2 188.2"/><polygon class="uuid-2ef640ff-954b-40bd-b6a3-bfb858a06731" points="1784.7 169.3 1662.6 2253.9 1516 2205.7 1638.1 121.1 1784.7 169.3"/><polygon class="uuid-5e84777f-c83a-4fe4-8eb8-c2f982b80c86" points="1651.6 125.5 1529.5 2210.1 1516 2205.7 1638.1 121.1 1651.6 125.5"/><polygon class="uuid-56301ceb-376f-4a11-bc35-f60bcc244876" points="1563.4 96.5 1441.3 2181.1 1702.8 2267.2 1824.9 182.6 1563.4 96.5"/><polygon class="uuid-fe2cb339-d2c2-43ae-82f0-b394c1eaf647" points="1798.8 373.2 1676.7 2457.8 1731.2 2475.7 1853.3 391.1 1798.8 373.2"/></g><g class="uuid-7370a6a0-ab1b-41ce-a288-db74cbcb5c10"><polygon class="uuid-14ebcf1b-1a66-48c1-8dd1-8cbf2d8cd813" points="1407.9 2288.8 1530.1 204.2 1475.6 186.3 1353.5 2270.9 1407.9 2288.8"/><polygon class="uuid-14dc1190-a36c-4fbd-aa93-767bc41c8485" points="1468.4 2306.4 1590.5 221.7 1737.1 270 1615 2354.6 1468.4 2306.4"/><polygon class="uuid-43904d93-0f58-40d9-83e2-7950ccd41912" points="1601.4 2350.2 1723.6 265.5 1737.1 270 1615 2354.6 1601.4 2350.2"/><polygon class="uuid-1a6375b1-4cc0-4e99-afe8-5152c3129508" points="1689.6 2379.2 1811.8 294.6 1550.3 208.5 1428.1 2293.1 1689.6 2379.2"/><polygon class="uuid-43e1744b-94fd-4149-8d00-5f081c983265" points="1454.3 2102.5 1576.4 17.9 1521.9 0 1399.8 2084.6 1454.3 2102.5"/></g></g></g></g></g></g></svg>